<svg width="673" height="103" viewBox="0 0 673 103" fill="none" xmlns="http://www.w3.org/2000/svg">
<path d="M-548.2 122.6L-547.25 122.289L-547.475 121.6H-548.2V122.6ZM-595.4 122.6V121.6H-596.125L-596.35 122.289L-595.4 122.6ZM-602.4 144V145H-601.675L-601.45 144.311L-602.4 144ZM-649 144L-649.939 143.656L-650.431 145H-649V144ZM-597.2 2.4V1.4H-597.899L-598.139 2.05645L-597.2 2.4ZM-546 2.4L-545.06 2.05762L-545.3 1.4H-546V2.4ZM-494.4 144V145H-492.971L-493.46 143.658L-494.4 144ZM-541.2 144L-542.15 144.311L-541.925 145H-541.2V144ZM-559 89.2V90.2H-557.624L-558.049 88.891L-559 89.2ZM-571.8 49.8L-570.849 49.491L-571.8 46.5635L-572.751 49.491L-571.8 49.8ZM-584.6 89.2L-585.551 88.891L-585.976 90.2H-584.6V89.2ZM-548.2 121.6H-595.4V123.6H-548.2V121.6ZM-596.35 122.289L-603.35 143.689L-601.45 144.311L-594.45 122.911L-596.35 122.289ZM-602.4 143H-649V145H-602.4V143ZM-648.061 144.344L-596.261 2.74355L-598.139 2.05645L-649.939 143.656L-648.061 144.344ZM-597.2 3.4H-546V1.4H-597.2V3.4ZM-546.94 2.74238L-495.34 144.342L-493.46 143.658L-545.06 2.05762L-546.94 2.74238ZM-494.4 143H-541.2V145H-494.4V143ZM-540.25 143.689L-547.25 122.289L-549.15 122.911L-542.15 144.311L-540.25 143.689ZM-558.049 88.891L-570.849 49.491L-572.751 50.109L-559.951 89.509L-558.049 88.891ZM-572.751 49.491L-585.551 88.891L-583.649 89.509L-570.849 50.109L-572.751 49.491ZM-584.6 90.2H-559V88.2H-584.6V90.2ZM-384.312 2.4H-383.312V1.4H-384.312V2.4ZM-384.312 37.6V38.6H-383.312V37.6H-384.312ZM-439.912 37.6V36.6H-440.912V37.6H-439.912ZM-439.912 57.2H-440.912V58.2H-439.912V57.2ZM-399.912 57.2H-398.912V56.2H-399.912V57.2ZM-399.912 90.6V91.6H-398.912V90.6H-399.912ZM-439.912 90.6V89.6H-440.912V90.6H-439.912ZM-439.912 144V145H-438.912V144H-439.912ZM-484.312 144H-485.312V145H-484.312V144ZM-484.312 2.4V1.4H-485.312V2.4H-484.312ZM-385.312 2.4V37.6H-383.312V2.4H-385.312ZM-384.312 36.6H-439.912V38.6H-384.312V36.6ZM-440.912 37.6V57.2H-438.912V37.6H-440.912ZM-439.912 58.2H-399.912V56.2H-439.912V58.2ZM-400.912 57.2V90.6H-398.912V57.2H-400.912ZM-399.912 89.6H-439.912V91.6H-399.912V89.6ZM-440.912 90.6V144H-438.912V90.6H-440.912ZM-439.912 143H-484.312V145H-439.912V143ZM-483.312 144V2.4H-485.312V144H-483.312ZM-484.312 3.4H-384.312V1.4H-484.312V3.4ZM-269.273 2.4H-268.273V1.4H-269.273V2.4ZM-269.273 37.6V38.6H-268.273V37.6H-269.273ZM-324.873 37.6V36.6H-325.873V37.6H-324.873ZM-324.873 57.2H-325.873V58.2H-324.873V57.2ZM-284.873 57.2H-283.873V56.2H-284.873V57.2ZM-284.873 90.6V91.6H-283.873V90.6H-284.873ZM-324.873 90.6V89.6H-325.873V90.6H-324.873ZM-324.873 144V145H-323.873V144H-324.873ZM-369.273 144H-370.273V145H-369.273V144ZM-369.273 2.4V1.4H-370.273V2.4H-369.273ZM-270.273 2.4V37.6H-268.273V2.4H-270.273ZM-269.273 36.6H-324.873V38.6H-269.273V36.6ZM-325.873 37.6V57.2H-323.873V37.6H-325.873ZM-324.873 58.2H-284.873V56.2H-324.873V58.2ZM-285.873 57.2V90.6H-283.873V57.2H-285.873ZM-284.873 89.6H-324.873V91.6H-284.873V89.6ZM-325.873 90.6V144H-323.873V90.6H-325.873ZM-324.873 143H-369.273V145H-324.873V143ZM-368.273 144V2.4H-370.273V144H-368.273ZM-369.273 3.4H-269.273V1.4H-369.273V3.4ZM-222.034 136L-222.527 136.87L-222.523 136.873L-222.034 136ZM-248.434 110L-249.296 110.508L-249.296 110.508L-248.434 110ZM-222.034 9.39999L-221.55 10.2747L-221.546 10.2727L-222.034 9.39999ZM-148.634 9.39999L-149.127 10.2702L-149.119 10.2746L-148.634 9.39999ZM-122.434 35.2L-123.3 35.7006L-123.295 35.7084L-122.434 35.2ZM-122.434 110L-123.296 109.492L-123.3 109.499L-122.434 110ZM-148.834 136L-149.323 135.127L-149.327 135.13L-148.834 136ZM-164.834 95.6L-164.075 96.2508L-164.068 96.2419L-164.834 95.6ZM-164.834 49.6L-165.601 50.242L-165.594 50.2508L-164.834 49.6ZM-205.834 49.6L-205.075 50.2508L-205.068 50.2419L-205.834 49.6ZM-205.834 95.6L-206.601 96.242L-206.594 96.2508L-205.834 95.6ZM-185.234 144.4C-198.404 144.4 -210.501 141.307 -221.546 135.127L-222.523 136.873C-211.168 143.226 -198.732 146.4 -185.234 146.4V144.4ZM-221.542 135.13C-232.454 128.95 -241.128 120.409 -247.573 109.492L-249.296 110.508C-242.674 121.724 -233.748 130.516 -222.527 136.87L-221.542 135.13ZM-247.573 109.492C-254.009 98.5911 -257.234 86.3025 -257.234 72.6H-259.234C-259.234 86.6309 -255.927 99.2756 -249.296 110.508L-247.573 109.492ZM-257.234 72.6C-257.234 58.8975 -254.009 46.6089 -247.573 35.7084L-249.296 34.6916C-255.927 45.9244 -259.234 58.5691 -259.234 72.6H-257.234ZM-247.573 35.7084C-241.129 24.7926 -232.458 16.3202 -221.55 10.2746L-222.519 8.52534C-233.744 14.7465 -242.673 23.474 -249.296 34.6916L-247.573 35.7084ZM-221.546 10.2727C-210.501 4.09281 -198.404 0.999994 -185.234 0.999994V-1.00001C-198.732 -1.00001 -211.168 2.17385 -222.523 8.52731L-221.546 10.2727ZM-185.234 0.999994C-172.065 0.999994 -160.036 4.09278 -149.127 10.2702L-148.142 8.52982C-159.366 2.17388 -171.737 -1.00001 -185.234 -1.00001V0.999994ZM-149.119 10.2746C-138.213 16.3192 -129.61 24.7891 -123.3 35.7006L-121.569 34.6994C-128.058 23.4775 -136.923 14.7475 -148.15 8.52534L-149.119 10.2746ZM-123.295 35.7084C-116.86 46.6089 -113.634 58.8975 -113.634 72.6H-111.634C-111.634 58.5691 -114.942 45.9244 -121.573 34.6916L-123.295 35.7084ZM-113.634 72.6C-113.634 86.3025 -116.86 98.5911 -123.295 109.492L-121.573 110.508C-114.942 99.2756 -111.634 86.6309 -111.634 72.6H-113.634ZM-123.3 109.499C-129.61 120.41 -138.279 128.948 -149.323 135.127L-148.346 136.873C-136.99 130.519 -128.059 121.724 -121.569 110.501L-123.3 109.499ZM-149.327 135.13C-160.238 141.308 -172.2 144.4 -185.234 144.4V146.4C-171.868 146.4 -159.564 143.225 -148.342 136.87L-149.327 135.13ZM-185.234 105C-176.204 105 -169.102 102.116 -164.075 96.2508L-165.594 94.9492C-170.167 100.284 -176.664 103 -185.234 103V105ZM-164.068 96.2419C-159.078 90.2826 -156.634 82.3667 -156.634 72.6H-158.634C-158.634 82.0333 -160.99 89.4507 -165.601 94.9581L-164.068 96.2419ZM-156.634 72.6C-156.634 62.7053 -159.076 54.7816 -164.075 48.9492L-165.594 50.2508C-160.993 55.6184 -158.634 63.028 -158.634 72.6H-156.634ZM-164.068 48.9581C-169.092 42.9567 -176.196 40 -185.234 40V42C-176.672 42 -170.177 44.7766 -165.601 50.2419L-164.068 48.9581ZM-185.234 40C-194.4 40 -201.574 42.9531 -206.601 48.9581L-205.068 50.2419C-200.495 44.7802 -193.935 42 -185.234 42V40ZM-206.594 48.9492C-211.593 54.7816 -214.034 62.7053 -214.034 72.6H-212.034C-212.034 63.028 -209.676 55.6184 -205.075 50.2508L-206.594 48.9492ZM-214.034 72.6C-214.034 82.3667 -211.59 90.2826 -206.601 96.2419L-205.068 94.9581C-209.678 89.4507 -212.034 82.0333 -212.034 72.6H-214.034ZM-206.594 96.2508C-201.564 102.119 -194.392 105 -185.234 105V103C-193.943 103 -200.505 100.281 -205.075 94.9492L-206.594 96.2508ZM-25.4172 144L-26.3031 144.464L-26.0224 145H-25.4172V144ZM-52.0172 93.2L-51.1313 92.7361L-51.412 92.2H-52.0172V93.2ZM-52.2172 93.2V92.2H-53.2172V93.2H-52.2172ZM-52.2172 144V145H-51.2172V144H-52.2172ZM-96.6172 144H-97.6172V145H-96.6172V144ZM-96.6172 2.4V1.4H-97.6172V2.4H-96.6172ZM-1.21719 8.59999L-1.67027 9.49155L-1.65851 9.49734L-1.21719 8.59999ZM16.9828 25.2L16.1126 25.6926L16.1181 25.7024L16.1239 25.7121L16.9828 25.2ZM15.1828 74L14.374 73.4118L14.3671 73.4216L15.1828 74ZM-7.41718 89.8L-7.72569 88.8488L-8.89281 89.2273L-8.28661 90.2941L-7.41718 89.8ZM23.3828 144V145H25.1013L24.2522 143.506L23.3828 144ZM-52.2172 63.6H-53.2172V64.6H-52.2172V63.6ZM-25.0172 60.8L-24.3587 61.5526L-24.3458 61.5413L-24.3332 61.5295L-25.0172 60.8ZM-25.2172 42.8L-25.9243 43.5071L-25.9136 43.5178L-25.9026 43.5282L-25.2172 42.8ZM-52.2172 39.6V38.6H-53.2172V39.6H-52.2172ZM-24.5313 143.536L-51.1313 92.7361L-52.9031 93.6639L-26.3031 144.464L-24.5313 143.536ZM-52.0172 92.2H-52.2172V94.2H-52.0172V92.2ZM-53.2172 93.2V144H-51.2172V93.2H-53.2172ZM-52.2172 143H-96.6172V145H-52.2172V143ZM-95.6172 144V2.4H-97.6172V144H-95.6172ZM-96.6172 3.4H-30.6172V1.4H-96.6172V3.4ZM-30.6172 3.4C-19.2685 3.4 -9.63179 5.44545 -1.67023 9.49148L-0.764136 7.70851C-9.06925 3.48788 -19.0325 1.4 -30.6172 1.4V3.4ZM-1.65851 9.49734C6.31621 13.4193 12.2229 18.8209 16.1126 25.6926L17.8531 24.7074C13.7427 17.4458 7.51609 11.7807 -0.775865 7.70264L-1.65851 9.49734ZM16.1239 25.7121C20.1567 32.4767 22.1828 40.1635 22.1828 48.8H24.1828C24.1828 39.8365 22.0757 31.7899 17.8418 24.6879L16.1239 25.7121ZM22.1828 48.8C22.1828 58.0652 19.5774 66.2573 14.3741 73.4118L15.9916 74.5882C21.4549 67.0761 24.1828 58.4681 24.1828 48.8H22.1828ZM14.3671 73.4216C9.31017 80.5531 1.96895 85.7046 -7.72569 88.8488L-7.10868 90.7512C2.93003 87.4954 10.6555 82.1135 15.9986 74.5784L14.3671 73.4216ZM-8.28661 90.2941L22.5134 144.494L24.2522 143.506L-6.54776 89.3059L-8.28661 90.2941ZM23.3828 143H-25.4172V145H23.3828V143ZM-52.2172 64.6H-34.6172V62.6H-52.2172V64.6ZM-34.6172 64.6C-30.2267 64.6 -26.7471 63.6425 -24.3587 61.5526L-25.6757 60.0474C-27.5539 61.6909 -30.4743 62.6 -34.6172 62.6V64.6ZM-24.3332 61.5295C-21.9265 59.2732 -20.8172 55.893 -20.8172 51.6H-22.8172C-22.8172 55.5737 -23.8412 58.3268 -25.7011 60.0705L-24.3332 61.5295ZM-20.8172 51.6C-20.8172 47.6504 -22.0248 44.4313 -24.5318 42.0718L-25.9026 43.5282C-23.8762 45.4354 -22.8172 48.083 -22.8172 51.6H-20.8172ZM-24.5101 42.0929C-26.8917 39.7113 -30.319 38.6 -34.6172 38.6V40.6C-30.6487 40.6 -27.8094 41.622 -25.9243 43.5071L-24.5101 42.0929ZM-34.6172 38.6H-52.2172V40.6H-34.6172V38.6ZM-53.2172 39.6V63.6H-51.2172V39.6H-53.2172ZM135.167 11.4L134.691 12.2791L134.695 12.2815L135.167 11.4ZM160.967 36.4L161.839 35.9097L161.839 35.9097L160.967 36.4ZM160.967 109.2L161.841 109.686L161.841 109.686L160.967 109.2ZM135.167 134.8L135.652 135.675L135.655 135.673L135.167 134.8ZM37.3672 144H36.3672V145H37.3672V144ZM37.3672 2.4V1.4H36.3672V2.4H37.3672ZM116.167 96.2L116.849 96.9316L116.849 96.9316L116.167 96.2ZM116.167 49.4L116.849 48.6684L116.849 48.6684L116.167 49.4ZM81.7672 41.2V40.2H80.7672V41.2H81.7672ZM81.7672 104.4H80.7672V105.4H81.7672V104.4ZM96.3672 3.4C111.03 3.4 123.794 6.37133 134.691 12.2791L135.644 10.5209C124.407 4.42867 111.304 1.4 96.3672 1.4V3.4ZM134.695 12.2815C145.734 18.1953 154.193 26.3959 160.096 36.8903L161.839 35.9097C155.742 25.0708 147 16.6047 135.639 10.5185L134.695 12.2815ZM160.096 36.8903C166.002 47.3911 168.967 59.3522 168.967 72.8H170.967C170.967 59.0478 167.932 46.7422 161.839 35.9097L160.096 36.8903ZM168.967 72.8C168.967 86.1124 166.003 98.0761 160.093 108.714L161.841 109.686C167.931 98.7239 170.967 86.4209 170.967 72.8H168.967ZM160.093 108.714C154.187 119.346 145.723 127.748 134.679 133.927L135.655 135.673C147.011 129.319 155.748 120.654 161.841 109.686L160.093 108.714ZM134.682 133.925C123.788 139.963 111.027 143 96.3672 143V145C111.308 145 124.414 141.903 135.652 135.675L134.682 133.925ZM96.3672 143H37.3672V145H96.3672V143ZM38.3672 144V2.4H36.3672V144H38.3672ZM37.3672 3.4H96.3672V1.4H37.3672V3.4ZM92.3672 105.4C102.555 105.4 110.754 102.611 116.849 96.9316L115.485 95.4684C109.847 100.723 102.18 103.4 92.3672 103.4V105.4ZM116.849 96.9316C122.969 91.2285 125.967 83.1329 125.967 72.8H123.967C123.967 82.7337 121.098 90.2381 115.485 95.4684L116.849 96.9316ZM125.967 72.8C125.967 62.4671 122.969 54.3715 116.849 48.6684L115.485 50.1316C121.098 55.3619 123.967 62.8663 123.967 72.8H125.967ZM116.849 48.6684C110.754 42.9893 102.555 40.2 92.3672 40.2V42.2C102.18 42.2 109.847 44.8773 115.485 50.1316L116.849 48.6684ZM92.3672 40.2H81.7672V42.2H92.3672V40.2ZM80.7672 41.2V104.4H82.7672V41.2H80.7672ZM81.7672 105.4H92.3672V103.4H81.7672V105.4ZM276.8 122.6L277.75 122.289L277.525 121.6H276.8V122.6ZM229.6 122.6V121.6H228.875L228.65 122.289L229.6 122.6ZM222.6 144V145H223.325L223.55 144.311L222.6 144ZM176 144L175.061 143.656L174.569 145H176V144ZM227.8 2.4V1.4H227.101L226.861 2.05645L227.8 2.4ZM279 2.4L279.94 2.05762L279.7 1.4H279V2.4ZM330.6 144V145H332.029L331.54 143.658L330.6 144ZM283.8 144L282.85 144.311L283.075 145H283.8V144ZM266 89.2V90.2H267.376L266.951 88.891L266 89.2ZM253.2 49.8L254.151 49.491L253.2 46.5635L252.249 49.491L253.2 49.8ZM240.4 89.2L239.449 88.891L239.024 90.2H240.4V89.2ZM276.8 121.6H229.6V123.6H276.8V121.6ZM228.65 122.289L221.65 143.689L223.55 144.311L230.55 122.911L228.65 122.289ZM222.6 143H176V145H222.6V143ZM176.939 144.344L228.739 2.74355L226.861 2.05645L175.061 143.656L176.939 144.344ZM227.8 3.4H279V1.4H227.8V3.4ZM278.06 2.74238L329.66 144.342L331.54 143.658L279.94 2.05762L278.06 2.74238ZM330.6 143H283.8V145H330.6V143ZM284.75 143.689L277.75 122.289L275.85 122.911L282.85 144.311L284.75 143.689ZM266.951 88.891L254.151 49.491L252.249 50.109L265.049 89.509L266.951 88.891ZM252.249 49.491L239.449 88.891L241.351 89.509L254.151 50.109L252.249 49.491ZM240.4 90.2H266V88.2H240.4V90.2ZM435.488 71.4L435.237 70.432L435.259 72.3736L435.488 71.4ZM455.288 83.8L454.485 84.3973L454.493 84.4069L454.5 84.4163L455.288 83.8ZM450.088 134L450.721 134.773L450.723 134.772L450.088 134ZM340.688 144H339.688V145H340.688V144ZM340.688 2.4V1.4H339.688V2.4H340.688ZM452.688 60.2L451.894 59.5912L451.892 59.594L452.688 60.2ZM385.088 57.6H384.088V58.6H385.088V57.6ZM411.088 55.2L410.463 54.4191L410.45 54.4297L410.437 54.4407L411.088 55.2ZM411.088 40.2L410.407 40.9328L410.434 40.9578L410.463 40.9809L411.088 40.2ZM385.088 37.6V36.6H384.088V37.6H385.088ZM414.088 106.2L414.705 106.986L414.712 106.981L414.088 106.2ZM385.088 88.4V87.4H384.088V88.4H385.088ZM385.088 108.4H384.088V109.4H385.088V108.4ZM435.259 72.3736C443.593 74.3268 449.977 78.343 454.485 84.3973L456.09 83.2027C451.265 76.7237 444.449 72.4732 435.716 70.4264L435.259 72.3736ZM454.5 84.4163C459.156 90.3655 461.488 97.2794 461.488 105.2H463.488C463.488 96.8539 461.019 89.5012 456.075 83.1837L454.5 84.4163ZM461.488 105.2C461.488 117.354 457.45 126.649 449.452 133.228L450.723 134.772C459.258 127.751 463.488 117.846 463.488 105.2H461.488ZM449.454 133.227C441.565 139.693 430.093 143 414.888 143V145C430.349 145 442.343 141.641 450.721 134.773L449.454 133.227ZM414.888 143H340.688V145H414.888V143ZM341.688 144V2.4H339.688V144H341.688ZM340.688 3.4H412.888V1.4H340.688V3.4ZM412.888 3.4C427.152 3.4 438.247 6.50461 446.283 12.5969L447.492 11.0031C438.995 4.56205 427.423 1.4 412.888 1.4V3.4ZM446.283 12.5969C454.259 18.6432 458.288 27.4573 458.288 39.2H460.288C460.288 26.9427 456.049 17.4901 447.492 11.0031L446.283 12.5969ZM458.288 39.2C458.288 47.2796 456.141 54.0571 451.894 59.5912L453.481 60.8088C458.034 54.8762 460.288 47.6537 460.288 39.2H458.288ZM451.892 59.594C447.769 65.0052 442.233 68.6182 435.237 70.432L435.738 72.368C443.142 70.4485 449.072 66.5948 453.483 60.806L451.892 59.594ZM385.088 58.6H402.288V56.6H385.088V58.6ZM402.288 58.6C406.386 58.6 409.607 57.7863 411.738 55.9592L410.437 54.4407C408.835 55.8137 406.189 56.6 402.288 56.6V58.6ZM411.712 55.9809C414.017 54.1368 415.088 51.3381 415.088 47.8H413.088C413.088 50.9286 412.158 53.0632 410.463 54.4191L411.712 55.9809ZM415.088 47.8C415.088 44.1441 414.026 41.2704 411.712 39.4191L410.463 40.9809C412.149 42.3295 413.088 44.5226 413.088 47.8H415.088ZM411.768 39.4672C409.635 37.4869 406.402 36.6 402.288 36.6V38.6C406.173 38.6 408.806 39.4464 410.407 40.9328L411.768 39.4672ZM402.288 36.6H385.088V38.6H402.288V36.6ZM384.088 37.6V57.6H386.088V37.6H384.088ZM405.288 109.4C409.372 109.4 412.577 108.658 414.705 106.986L413.47 105.414C411.864 106.675 409.203 107.4 405.288 107.4V109.4ZM414.712 106.981C417.026 105.13 418.088 102.256 418.088 98.6H416.088C416.088 101.877 415.149 104.07 413.463 105.419L414.712 106.981ZM418.088 98.6C418.088 95.0048 417.041 92.1379 414.791 90.1935C412.57 88.2731 409.342 87.4 405.288 87.4V89.4C409.1 89.4 411.772 90.2269 413.484 91.7065C415.167 93.1621 416.088 95.3952 416.088 98.6H418.088ZM405.288 87.4H385.088V89.4H405.288V87.4ZM384.088 88.4V108.4H386.088V88.4H384.088ZM385.088 109.4H405.288V107.4H385.088V109.4ZM521.806 110.4H520.806V111.4H521.806V110.4ZM564.606 110.4H565.606V109.4H564.606V110.4ZM564.606 144V145H565.606V144H564.606ZM477.406 144H476.406V145H477.406V144ZM477.406 2.4V1.4H476.406V2.4H477.406ZM521.806 2.4H522.806V1.4H521.806V2.4ZM521.806 111.4H564.606V109.4H521.806V111.4ZM563.606 110.4V144H565.606V110.4H563.606ZM564.606 143H477.406V145H564.606V143ZM478.406 144V2.4H476.406V144H478.406ZM477.406 3.4H521.806V1.4H477.406V3.4ZM520.806 2.4V110.4H522.806V2.4H520.806ZM622.978 37.8V36.8H621.978V37.8H622.978ZM622.978 55.2H621.978V56.2H622.978V55.2ZM666.978 55.2H667.978V54.2H666.978V55.2ZM666.978 88.6V89.6H667.978V88.6H666.978ZM622.978 88.6V87.6H621.978V88.6H622.978ZM622.978 108.6H621.978V109.6H622.978V108.6ZM672.978 108.6H673.978V107.6H672.978V108.6ZM672.978 144V145H673.978V144H672.978ZM578.578 144H577.578V145H578.578V144ZM578.578 2.4V1.4H577.578V2.4H578.578ZM672.978 2.4H673.978V1.4H672.978V2.4ZM672.978 37.8V38.8H673.978V37.8H672.978ZM621.978 37.8V55.2H623.978V37.8H621.978ZM622.978 56.2H666.978V54.2H622.978V56.2ZM665.978 55.2V88.6H667.978V55.2H665.978ZM666.978 87.6H622.978V89.6H666.978V87.6ZM621.978 88.6V108.6H623.978V88.6H621.978ZM622.978 109.6H672.978V107.6H622.978V109.6ZM671.978 108.6V144H673.978V108.6H671.978ZM672.978 143H578.578V145H672.978V143ZM579.578 144V2.4H577.578V144H579.578ZM578.578 3.4H672.978V1.4H578.578V3.4ZM671.978 2.4V37.8H673.978V2.4H671.978ZM672.978 36.8H622.978V38.8H672.978V36.8Z" fill="#FFC32A"/>
</svg>
