<svg width="28" height="140" viewBox="0 0 28 140" fill="none" xmlns="http://www.w3.org/2000/svg">
<path d="M6.04639 73.3412L-10.22 57.0987L-15 61.8787L6.04639 82.9251L27.0928 61.8787L22.2889 57.0987L6.04639 73.3412Z" fill="#997519"/>
<path d="M6.04639 44.9703L-10.22 28.7277L-15 33.5077L6.04639 54.5541L27.0928 33.5077L22.2889 28.7277L6.04639 44.9703Z" fill="#997519"/>
<path d="M6.04639 16.2664L-10.22 1.72231e-05L-15 4.80383L6.04639 25.8264L27.0928 4.80383L22.2889 1.76108e-05L6.04639 16.2664Z" fill="#997519"/>
<path d="M6.04639 130.416L-10.22 114.174L-15 118.954L6.04639 140L27.0928 118.954L22.2889 114.174L6.04639 130.416Z" fill="#997519"/>
<path d="M6.04639 102.045L-10.22 85.8026L-15 90.5826L6.04639 111.629L27.0928 90.5826L22.2889 85.8026L6.04639 102.045Z" fill="#997519"/>
</svg>
