<svg width="25" height="25" viewBox="0 0 25 25" fill="none" xmlns="http://www.w3.org/2000/svg">
<path d="M17.6159 2.81299H7.45547C4.64974 2.81299 2.37524 4.97917 2.37524 7.6513V17.3279C2.37524 20 4.64974 22.1662 7.45547 22.1662H17.6159C20.4217 22.1662 22.6961 20 22.6961 17.3279V7.6513C22.6961 4.97917 20.4217 2.81299 17.6159 2.81299Z" stroke="#1E1E1E" stroke-width="2" stroke-linecap="round" stroke-linejoin="round"/>
<path d="M16.6 11.88C16.7254 12.6854 16.581 13.5079 16.1873 14.2305C15.7936 14.9532 15.1706 15.5392 14.407 15.9052C13.6434 16.2712 12.7781 16.3986 11.9341 16.2693C11.0901 16.1399 10.3105 15.7604 9.706 15.1848C9.10153 14.6091 8.70306 13.8665 8.56725 13.0627C8.43144 12.2589 8.56521 11.4348 8.94954 10.7076C9.33387 9.98038 9.94919 9.38709 10.708 9.01212C11.4668 8.63716 12.3304 8.4996 13.176 8.61902C14.0385 8.74083 14.837 9.12362 15.4536 9.71084C16.0702 10.2981 16.4721 11.0586 16.6 11.88Z" stroke="#1E1E1E" stroke-width="2" stroke-linecap="round" stroke-linejoin="round"/>
<path d="M18.124 7.16748H18.1338" stroke="#1E1E1E" stroke-width="2" stroke-linecap="round" stroke-linejoin="round"/>
</svg>
