<svg width="24" height="25" viewBox="0 0 24 25" fill="none" xmlns="http://www.w3.org/2000/svg">
<path d="M16.1841 8.6189C17.724 8.6189 19.2008 9.2306 20.2896 10.3194C21.3784 11.4083 21.9901 12.885 21.9901 14.4249V21.1985H18.1195V14.4249C18.1195 13.9116 17.9156 13.4193 17.5526 13.0564C17.1897 12.6934 16.6974 12.4895 16.1841 12.4895C15.6709 12.4895 15.1786 12.6934 14.8157 13.0564C14.4527 13.4193 14.2488 13.9116 14.2488 14.4249V21.1985H10.3782V14.4249C10.3782 12.885 10.9899 11.4083 12.0787 10.3194C13.1675 9.2306 14.6443 8.6189 16.1841 8.6189V8.6189Z" stroke="#1E1E1E" stroke-width="2" stroke-linecap="round" stroke-linejoin="round"/>
<path d="M6.50761 9.58667H2.63696V21.1986H6.50761V9.58667Z" stroke="#1E1E1E" stroke-width="2" stroke-linecap="round" stroke-linejoin="round"/>
<path d="M4.57229 6.68364C5.64114 6.68364 6.50761 5.81716 6.50761 4.74831C6.50761 3.67946 5.64114 2.81299 4.57229 2.81299C3.50344 2.81299 2.63696 3.67946 2.63696 4.74831C2.63696 5.81716 3.50344 6.68364 4.57229 6.68364Z" stroke="#1E1E1E" stroke-width="2" stroke-linecap="round" stroke-linejoin="round"/>
</svg>
