<svg width="156" height="158" viewBox="0 0 156 158" fill="none" xmlns="http://www.w3.org/2000/svg">
<path d="M157.992 158C70.8768 158 0 87.1232 0 -0.00762939C0 -87.1385 70.8768 -158 157.992 -158C245.108 -158 316 -87.1232 316 -0.00762939C316 87.108 245.123 158 157.992 158ZM157.992 -154.948C72.5556 -154.948 3.0524 -85.4444 3.0524 -0.00762939C3.0524 85.4291 72.5556 154.948 157.992 154.948C243.429 154.948 312.948 85.4444 312.948 -0.00762939C312.948 -85.4444 243.429 -154.948 157.992 -154.948Z" fill="#FFC32A"/>
<path d="M157.992 132.161C85.1163 132.161 25.8386 72.8681 25.8386 0.00727844C25.8386 -72.8688 85.1316 -132.146 157.992 -132.146C230.869 -132.146 290.146 -72.8536 290.146 0.00727844C290.161 72.8681 230.869 132.161 157.992 132.161ZM157.992 -121.707C90.8853 -121.707 36.2931 -67.1151 36.2931 -0.00798035C36.2931 67.0991 90.8853 121.691 157.992 121.691C225.1 121.691 279.692 67.0991 279.692 -0.00798035C279.692 -67.1151 225.1 -121.707 157.992 -121.707Z" fill="#931D22"/>
<path d="M157.992 106.308C99.3711 106.308 51.6772 58.6138 51.6772 -0.00756836C51.6772 -58.629 99.3711 -106.323 157.992 -106.323C216.614 -106.323 264.308 -58.629 264.308 -0.00756836C264.308 58.6138 216.614 106.308 157.992 106.308ZM157.992 -103.27C101.05 -103.27 54.7296 -56.9501 54.7296 -0.00756836C54.7296 56.935 101.05 103.255 157.992 103.255C214.935 103.255 261.255 56.935 261.255 -0.00756836C261.255 -56.9501 214.935 -103.27 157.992 -103.27Z" fill="#FFC32A"/>
<path d="M157.992 80.4693C113.626 80.4693 77.5159 44.3746 77.5159 -0.00730133C77.5159 -44.3892 113.611 -80.4839 157.992 -80.4839C202.374 -80.4839 238.469 -44.3892 238.469 -0.00730133C238.469 44.3746 202.374 80.4693 157.992 80.4693ZM157.992 -77.4162C115.305 -77.4162 80.5683 -42.6799 80.5683 0.00794983C80.5683 42.6958 115.305 77.4322 157.992 77.4322C200.68 77.4322 235.417 42.6958 235.417 0.00794983C235.417 -42.6799 200.696 -77.4162 157.992 -77.4162Z" fill="#FFC32A"/>
<path d="M157.992 54.6304C127.865 54.6304 103.37 30.1196 103.37 -0.00761414C103.37 -30.1348 127.88 -54.6304 157.992 -54.6304C188.12 -54.6304 212.63 -30.1196 212.63 -0.00761414C212.63 30.1196 188.12 54.6304 157.992 54.6304ZM157.992 -51.578C129.559 -51.578 106.422 -28.4407 106.422 -0.00761414C106.422 28.4255 129.559 51.578 157.992 51.578C186.426 51.578 209.578 28.4408 209.578 -0.00761414C209.578 -28.456 186.441 -51.578 157.992 -51.578Z" fill="#FFC32A"/>
<path d="M157.992 28.7915C142.12 28.7915 129.208 15.8798 129.208 0.00730324C129.208 -15.8652 142.12 -28.7769 157.992 -28.7769C173.865 -28.7769 186.777 -15.8652 186.777 0.00730324C186.792 15.8645 173.865 28.7915 157.992 28.7915ZM157.992 -25.7397C143.799 -25.7397 132.261 -14.2016 132.261 -0.00794983C132.261 14.1857 143.799 25.7238 157.992 25.7238C172.186 25.7238 183.724 14.1857 183.724 -0.00794983C183.739 -14.1864 172.186 -25.7397 157.992 -25.7397Z" fill="#FFC32A"/>
</svg>
