<svg width="571" height="663" viewBox="0 0 571 663" fill="none" xmlns="http://www.w3.org/2000/svg">
<path d="M558.273 1116.6C250.446 1116.6 0 866.154 0 558.273C0 250.392 250.446 0 558.273 0C866.1 0 1116.6 250.446 1116.6 558.273C1116.6 866.1 866.154 1116.6 558.273 1116.6ZM558.273 10.7858C256.379 10.7858 10.7858 256.379 10.7858 558.273C10.7858 860.168 256.379 1105.81 558.273 1105.81C860.168 1105.81 1105.81 860.222 1105.81 558.273C1105.81 256.379 860.168 10.7858 558.273 10.7858Z" fill="white"/>
<path d="M558.273 1025.3C300.762 1025.3 91.3017 815.784 91.3017 558.327C91.3017 300.816 300.816 91.356 558.273 91.356C815.784 91.356 1025.24 300.87 1025.24 558.327C1025.3 815.784 815.784 1025.3 558.273 1025.3ZM558.273 128.243C321.147 128.243 128.243 321.147 128.243 558.273C128.243 795.399 321.147 988.303 558.273 988.303C795.399 988.303 988.303 795.399 988.303 558.273C988.303 321.147 795.399 128.243 558.273 128.243Z" fill="#931D22"/>
<path d="M558.273 933.942C351.132 933.942 182.603 765.414 182.603 558.273C182.603 351.132 351.132 182.604 558.273 182.604C765.414 182.604 933.942 351.132 933.942 558.273C933.942 765.414 765.414 933.942 558.273 933.942ZM558.273 193.389C357.064 193.389 193.389 357.064 193.389 558.273C193.389 759.482 357.064 923.157 558.273 923.157C759.482 923.157 923.156 759.482 923.156 558.273C923.156 357.064 759.482 193.389 558.273 193.389Z" fill="white"/>
<path d="M558.273 842.641C401.502 842.641 273.905 715.099 273.905 558.273C273.905 401.448 401.448 273.906 558.273 273.906C715.099 273.906 842.641 401.448 842.641 558.273C842.641 715.099 715.099 842.641 558.273 842.641ZM558.273 284.745C407.434 284.745 284.691 407.488 284.691 558.327C284.691 709.166 407.434 831.909 558.273 831.909C709.113 831.909 831.855 709.166 831.855 558.327C831.855 407.488 709.167 284.745 558.273 284.745Z" fill="white"/>
<path d="M558.273 751.339C451.817 751.339 365.261 664.729 365.261 558.273C365.261 451.817 451.871 365.261 558.273 365.261C664.729 365.261 751.339 451.871 751.339 558.273C751.339 664.729 664.729 751.339 558.273 751.339ZM558.273 376.047C457.803 376.047 376.047 457.803 376.047 558.273C376.047 658.743 457.803 740.553 558.273 740.553C658.743 740.553 740.553 658.797 740.553 558.273C740.553 457.75 658.797 376.047 558.273 376.047Z" fill="white"/>
<path d="M558.273 660.037C502.187 660.037 456.563 614.413 456.563 558.327C456.563 502.241 502.187 456.617 558.273 456.617C614.359 456.617 659.983 502.241 659.983 558.327C660.037 614.359 614.359 660.037 558.273 660.037ZM558.273 467.349C508.119 467.349 467.349 508.119 467.349 558.273C467.349 608.427 508.119 649.197 558.273 649.197C608.427 649.197 649.197 608.427 649.197 558.273C649.251 508.173 608.427 467.349 558.273 467.349Z" fill="white"/>
</svg>
