<svg width="88" height="517" viewBox="0 0 88 517" fill="none" xmlns="http://www.w3.org/2000/svg">
<path d="M14.1447 4.14668C15.2897 4.14668 16.218 3.21842 16.218 2.07334C16.218 0.928263 15.2897 0 14.1447 0C12.9996 0 12.0713 0.928263 12.0713 2.07334C12.0713 3.21842 12.9996 4.14668 14.1447 4.14668Z" fill="#931D22"/>
<path d="M40.0269 2.07334C40.0269 3.21368 39.094 4.14668 37.9536 4.14668C36.8133 4.14668 35.8802 3.21368 35.8802 2.07334C35.8802 0.933 36.8133 0 37.9536 0C39.1112 0 40.0269 0.933 40.0269 2.07334Z" fill="#931D22"/>
<path d="M61.7798 4.14668C62.9249 4.14668 63.8532 3.21842 63.8532 2.07334C63.8532 0.928263 62.9249 0 61.7798 0C60.6347 0 59.7064 0.928263 59.7064 2.07334C59.7064 3.21842 60.6347 4.14668 61.7798 4.14668Z" fill="#931D22"/>
<path d="M85.5887 4.14668C86.7338 4.14668 87.662 3.21842 87.662 2.07334C87.662 0.928263 86.7338 0 85.5887 0C84.4437 0 83.5154 0.928263 83.5154 2.07334C83.5154 3.21842 84.4437 4.14668 85.5887 4.14668Z" fill="#931D22"/>
<path d="M14.1447 27.4372C15.2897 27.4372 16.218 26.509 16.218 25.3639C16.218 24.2188 15.2897 23.2905 14.1447 23.2905C12.9996 23.2905 12.0713 24.2188 12.0713 25.3639C12.0713 26.509 12.9996 27.4372 14.1447 27.4372Z" fill="#931D22"/>
<path d="M40.0269 25.3639C40.0269 26.5042 39.094 27.4372 37.9536 27.4372C36.8133 27.4372 35.8802 26.5042 35.8802 25.3639C35.8802 24.2235 36.8133 23.2905 37.9536 23.2905C39.1112 23.3078 40.0269 24.2235 40.0269 25.3639Z" fill="#931D22"/>
<path d="M61.7798 27.4372C62.9249 27.4372 63.8532 26.509 63.8532 25.3639C63.8532 24.2188 62.9249 23.2905 61.7798 23.2905C60.6347 23.2905 59.7064 24.2188 59.7064 25.3639C59.7064 26.509 60.6347 27.4372 61.7798 27.4372Z" fill="#931D22"/>
<path d="M85.5887 27.4372C86.7338 27.4372 87.662 26.509 87.662 25.3639C87.662 24.2188 86.7338 23.2905 85.5887 23.2905C84.4437 23.2905 83.5154 24.2188 83.5154 25.3639C83.5154 26.509 84.4437 27.4372 85.5887 27.4372Z" fill="#931D22"/>
<path d="M14.1447 50.7451C15.2897 50.7451 16.218 49.8168 16.218 48.6717C16.218 47.5267 15.2897 46.5984 14.1447 46.5984C12.9996 46.5984 12.0713 47.5267 12.0713 48.6717C12.0713 49.8168 12.9996 50.7451 14.1447 50.7451Z" fill="#931D22"/>
<path d="M40.0269 48.6717C40.0269 49.8121 39.094 50.7451 37.9536 50.7451C36.8133 50.7451 35.8802 49.8121 35.8802 48.6717C35.8802 47.5314 36.8133 46.5984 37.9536 46.5984C39.1112 46.5984 40.0269 47.5141 40.0269 48.6717Z" fill="#931D22"/>
<path d="M61.7798 50.7451C62.9249 50.7451 63.8532 49.8168 63.8532 48.6717C63.8532 47.5267 62.9249 46.5984 61.7798 46.5984C60.6347 46.5984 59.7064 47.5267 59.7064 48.6717C59.7064 49.8168 60.6347 50.7451 61.7798 50.7451Z" fill="#931D22"/>
<path d="M85.5887 50.7451C86.7338 50.7451 87.662 49.8168 87.662 48.6717C87.662 47.5267 86.7338 46.5984 85.5887 46.5984C84.4437 46.5984 83.5154 47.5267 83.5154 48.6717C83.5154 49.8168 84.4437 50.7451 85.5887 50.7451Z" fill="#931D22"/>
<path d="M14.1447 74.0357C15.2897 74.0357 16.218 73.1075 16.218 71.9624C16.218 70.8173 15.2897 69.889 14.1447 69.889C12.9996 69.889 12.0713 70.8173 12.0713 71.9624C12.0713 73.1075 12.9996 74.0357 14.1447 74.0357Z" fill="#931D22"/>
<path d="M40.0269 71.9624C40.0269 73.1027 39.094 74.0357 37.9536 74.0357C36.8133 74.0357 35.8802 73.1027 35.8802 71.9624C35.8802 70.822 36.8133 69.889 37.9536 69.889C39.1112 69.889 40.0269 70.822 40.0269 71.9624Z" fill="#931D22"/>
<path d="M61.7798 74.0357C62.9249 74.0357 63.8532 73.1075 63.8532 71.9624C63.8532 70.8173 62.9249 69.889 61.7798 69.889C60.6347 69.889 59.7064 70.8173 59.7064 71.9624C59.7064 73.1075 60.6347 74.0357 61.7798 74.0357Z" fill="#931D22"/>
<path d="M85.5887 74.0357C86.7338 74.0357 87.662 73.1075 87.662 71.9624C87.662 70.8173 86.7338 69.889 85.5887 69.889C84.4437 69.889 83.5154 70.8173 83.5154 71.9624C83.5154 73.1075 84.4437 74.0357 85.5887 74.0357Z" fill="#931D22"/>
<path d="M14.1447 97.3263C15.2897 97.3263 16.218 96.398 16.218 95.2529C16.218 94.1078 15.2897 93.1796 14.1447 93.1796C12.9996 93.1796 12.0713 94.1078 12.0713 95.2529C12.0713 96.398 12.9996 97.3263 14.1447 97.3263Z" fill="#931D22"/>
<path d="M40.0269 95.2529C40.0269 96.3932 39.094 97.3263 37.9536 97.3263C36.8133 97.3263 35.8802 96.3932 35.8802 95.2529C35.8802 94.1126 36.8133 93.1796 37.9536 93.1796C39.1112 93.1796 40.0269 94.1126 40.0269 95.2529Z" fill="#931D22"/>
<path d="M61.7798 97.3263C62.9249 97.3263 63.8532 96.398 63.8532 95.2529C63.8532 94.1078 62.9249 93.1796 61.7798 93.1796C60.6347 93.1796 59.7064 94.1078 59.7064 95.2529C59.7064 96.398 60.6347 97.3263 61.7798 97.3263Z" fill="#931D22"/>
<path d="M85.5887 97.3263C86.7338 97.3263 87.662 96.398 87.662 95.2529C87.662 94.1078 86.7338 93.1796 85.5887 93.1796C84.4437 93.1796 83.5154 94.1078 83.5154 95.2529C83.5154 96.398 84.4437 97.3263 85.5887 97.3263Z" fill="#931D22"/>
<path d="M14.1447 120.617C15.2897 120.617 16.218 119.689 16.218 118.544C16.218 117.398 15.2897 116.47 14.1447 116.47C12.9996 116.47 12.0713 117.398 12.0713 118.544C12.0713 119.689 12.9996 120.617 14.1447 120.617Z" fill="#931D22"/>
<path d="M40.0269 118.544C40.0269 119.684 39.094 120.617 37.9536 120.617C36.8133 120.617 35.8802 119.684 35.8802 118.544C35.8802 117.403 36.8133 116.47 37.9536 116.47C39.1112 116.47 40.0269 117.403 40.0269 118.544Z" fill="#931D22"/>
<path d="M61.7798 120.617C62.9249 120.617 63.8532 119.689 63.8532 118.544C63.8532 117.398 62.9249 116.47 61.7798 116.47C60.6347 116.47 59.7064 117.398 59.7064 118.544C59.7064 119.689 60.6347 120.617 61.7798 120.617Z" fill="#931D22"/>
<path d="M85.5887 120.617C86.7338 120.617 87.662 119.689 87.662 118.544C87.662 117.398 86.7338 116.47 85.5887 116.47C84.4437 116.47 83.5154 117.398 83.5154 118.544C83.5154 119.689 84.4437 120.617 85.5887 120.617Z" fill="#931D22"/>
<path d="M14.1447 143.908C15.2897 143.908 16.218 142.979 16.218 141.834C16.218 140.689 15.2897 139.761 14.1447 139.761C12.9996 139.761 12.0713 140.689 12.0713 141.834C12.0713 142.979 12.9996 143.908 14.1447 143.908Z" fill="#931D22"/>
<path d="M40.0269 141.834C40.0269 142.975 39.094 143.908 37.9536 143.908C36.8133 143.908 35.8802 142.975 35.8802 141.834C35.8802 140.694 36.8133 139.761 37.9536 139.761C39.1112 139.778 40.0269 140.694 40.0269 141.834Z" fill="#931D22"/>
<path d="M61.7798 143.908C62.9249 143.908 63.8532 142.979 63.8532 141.834C63.8532 140.689 62.9249 139.761 61.7798 139.761C60.6347 139.761 59.7064 140.689 59.7064 141.834C59.7064 142.979 60.6347 143.908 61.7798 143.908Z" fill="#931D22"/>
<path d="M85.5887 143.908C86.7338 143.908 87.662 142.979 87.662 141.834C87.662 140.689 86.7338 139.761 85.5887 139.761C84.4437 139.761 83.5154 140.689 83.5154 141.834C83.5154 142.979 84.4437 143.908 85.5887 143.908Z" fill="#931D22"/>
<path d="M14.1447 167.215C15.2897 167.215 16.218 166.287 16.218 165.142C16.218 163.997 15.2897 163.069 14.1447 163.069C12.9996 163.069 12.0713 163.997 12.0713 165.142C12.0713 166.287 12.9996 167.215 14.1447 167.215Z" fill="#931D22"/>
<path d="M40.0269 165.142C40.0269 166.282 39.094 167.215 37.9536 167.215C36.8133 167.215 35.8802 166.282 35.8802 165.142C35.8802 164.002 36.8133 163.069 37.9536 163.069C39.1112 163.069 40.0269 163.984 40.0269 165.142Z" fill="#931D22"/>
<path d="M61.7798 167.215C62.9249 167.215 63.8532 166.287 63.8532 165.142C63.8532 163.997 62.9249 163.069 61.7798 163.069C60.6347 163.069 59.7064 163.997 59.7064 165.142C59.7064 166.287 60.6347 167.215 61.7798 167.215Z" fill="#931D22"/>
<path d="M85.5887 167.215C86.7338 167.215 87.662 166.287 87.662 165.142C87.662 163.997 86.7338 163.069 85.5887 163.069C84.4437 163.069 83.5154 163.997 83.5154 165.142C83.5154 166.287 84.4437 167.215 85.5887 167.215Z" fill="#931D22"/>
<path d="M16.229 188.76C16.4132 187.63 15.6462 186.565 14.516 186.38C13.3858 186.196 12.3204 186.963 12.1363 188.093C11.9521 189.224 12.7191 190.289 13.8492 190.473C14.9794 190.657 16.0449 189.89 16.229 188.76Z" fill="#931D22"/>
<path d="M40.0269 188.432C40.0269 189.573 39.094 190.506 37.9536 190.506C36.8133 190.506 35.8802 189.573 35.8802 188.432C35.8802 187.292 36.8133 186.359 37.9536 186.359C39.1112 186.359 40.0269 187.292 40.0269 188.432Z" fill="#931D22"/>
<path d="M63.9003 188.725C64.0187 187.586 63.1915 186.566 62.0526 186.448C60.9137 186.33 59.8944 187.157 59.776 188.296C59.6576 189.435 60.4849 190.454 61.6238 190.572C62.7627 190.691 63.7819 189.863 63.9003 188.725Z" fill="#931D22"/>
<path d="M87.6666 188.751C87.8508 187.62 87.0838 186.555 85.9536 186.371C84.8235 186.187 83.758 186.954 83.5739 188.084C83.3897 189.214 84.1567 190.28 85.2869 190.464C86.4171 190.648 87.4825 189.881 87.6666 188.751Z" fill="#931D22"/>
<path d="M14.1447 213.796C15.2897 213.796 16.218 212.868 16.218 211.723C16.218 210.578 15.2897 209.65 14.1447 209.65C12.9996 209.65 12.0713 210.578 12.0713 211.723C12.0713 212.868 12.9996 213.796 14.1447 213.796Z" fill="#931D22"/>
<path d="M40.0269 211.723C40.0269 212.863 39.094 213.796 37.9536 213.796C36.8133 213.796 35.8802 212.863 35.8802 211.723C35.8802 210.583 36.8133 209.65 37.9536 209.65C39.1112 209.65 40.0269 210.583 40.0269 211.723Z" fill="#931D22"/>
<path d="M61.7798 213.796C62.9249 213.796 63.8532 212.868 63.8532 211.723C63.8532 210.578 62.9249 209.65 61.7798 209.65C60.6347 209.65 59.7064 210.578 59.7064 211.723C59.7064 212.868 60.6347 213.796 61.7798 213.796Z" fill="#931D22"/>
<path d="M85.5887 213.796C86.7338 213.796 87.662 212.868 87.662 211.723C87.662 210.578 86.7338 209.65 85.5887 209.65C84.4437 209.65 83.5154 210.578 83.5154 211.723C83.5154 212.868 84.4437 213.796 85.5887 213.796Z" fill="#931D22"/>
<path d="M14.1447 237.087C15.2897 237.087 16.218 236.159 16.218 235.014C16.218 233.869 15.2897 232.94 14.1447 232.94C12.9996 232.94 12.0713 233.869 12.0713 235.014C12.0713 236.159 12.9996 237.087 14.1447 237.087Z" fill="#931D22"/>
<path d="M40.0269 235.014C40.0269 236.154 39.094 237.087 37.9536 237.087C36.8133 237.087 35.8802 236.154 35.8802 235.014C35.8802 233.873 36.8133 232.94 37.9536 232.94C39.1112 232.94 40.0269 233.873 40.0269 235.014Z" fill="#931D22"/>
<path d="M61.7798 237.087C62.9249 237.087 63.8532 236.159 63.8532 235.014C63.8532 233.869 62.9249 232.94 61.7798 232.94C60.6347 232.94 59.7064 233.869 59.7064 235.014C59.7064 236.159 60.6347 237.087 61.7798 237.087Z" fill="#931D22"/>
<path d="M85.5887 237.087C86.7338 237.087 87.662 236.159 87.662 235.014C87.662 233.869 86.7338 232.94 85.5887 232.94C84.4437 232.94 83.5154 233.869 83.5154 235.014C83.5154 236.159 84.4437 237.087 85.5887 237.087Z" fill="#931D22"/>
<path d="M14.1447 260.378C15.2897 260.378 16.218 259.449 16.218 258.304C16.218 257.159 15.2897 256.231 14.1447 256.231C12.9996 256.231 12.0713 257.159 12.0713 258.304C12.0713 259.449 12.9996 260.378 14.1447 260.378Z" fill="#931D22"/>
<path d="M40.0269 258.304C40.0269 259.445 39.094 260.378 37.9536 260.378C36.8133 260.378 35.8802 259.445 35.8802 258.304C35.8802 257.164 36.8133 256.231 37.9536 256.231C39.1112 256.248 40.0269 257.164 40.0269 258.304Z" fill="#931D22"/>
<path d="M61.7798 260.378C62.9249 260.378 63.8532 259.449 63.8532 258.304C63.8532 257.159 62.9249 256.231 61.7798 256.231C60.6347 256.231 59.7064 257.159 59.7064 258.304C59.7064 259.449 60.6347 260.378 61.7798 260.378Z" fill="#931D22"/>
<path d="M85.5887 260.378C86.7338 260.378 87.662 259.449 87.662 258.304C87.662 257.159 86.7338 256.231 85.5887 256.231C84.4437 256.231 83.5154 257.159 83.5154 258.304C83.5154 259.449 84.4437 260.378 85.5887 260.378Z" fill="#931D22"/>
<path d="M14.1447 283.686C15.2897 283.686 16.218 282.757 16.218 281.612C16.218 280.467 15.2897 279.539 14.1447 279.539C12.9996 279.539 12.0713 280.467 12.0713 281.612C12.0713 282.757 12.9996 283.686 14.1447 283.686Z" fill="#931D22"/>
<path d="M40.0269 281.612C40.0269 282.752 39.094 283.686 37.9536 283.686C36.8133 283.686 35.8802 282.752 35.8802 281.612C35.8802 280.472 36.8133 279.539 37.9536 279.539C39.1112 279.539 40.0269 280.455 40.0269 281.612Z" fill="#931D22"/>
<path d="M61.7798 283.686C62.9249 283.686 63.8532 282.757 63.8532 281.612C63.8532 280.467 62.9249 279.539 61.7798 279.539C60.6347 279.539 59.7064 280.467 59.7064 281.612C59.7064 282.757 60.6347 283.686 61.7798 283.686Z" fill="#931D22"/>
<path d="M85.5887 283.686C86.7338 283.686 87.662 282.757 87.662 281.612C87.662 280.467 86.7338 279.539 85.5887 279.539C84.4437 279.539 83.5154 280.467 83.5154 281.612C83.5154 282.757 84.4437 283.686 85.5887 283.686Z" fill="#931D22"/>
<path d="M14.1447 306.976C15.2897 306.976 16.218 306.048 16.218 304.903C16.218 303.758 15.2897 302.829 14.1447 302.829C12.9996 302.829 12.0713 303.758 12.0713 304.903C12.0713 306.048 12.9996 306.976 14.1447 306.976Z" fill="#931D22"/>
<path d="M40.0269 304.903C40.0269 306.043 39.094 306.976 37.9536 306.976C36.8133 306.976 35.8802 306.043 35.8802 304.903C35.8802 303.762 36.8133 302.829 37.9536 302.829C39.1112 302.829 40.0269 303.762 40.0269 304.903Z" fill="#931D22"/>
<path d="M61.7798 306.976C62.9249 306.976 63.8532 306.048 63.8532 304.903C63.8532 303.758 62.9249 302.829 61.7798 302.829C60.6347 302.829 59.7064 303.758 59.7064 304.903C59.7064 306.048 60.6347 306.976 61.7798 306.976Z" fill="#931D22"/>
<path d="M85.5887 306.976C86.7338 306.976 87.662 306.048 87.662 304.903C87.662 303.758 86.7338 302.829 85.5887 302.829C84.4437 302.829 83.5154 303.758 83.5154 304.903C83.5154 306.048 84.4437 306.976 85.5887 306.976Z" fill="#931D22"/>
<path d="M14.1447 330.267C15.2897 330.267 16.218 329.338 16.218 328.193C16.218 327.048 15.2897 326.12 14.1447 326.12C12.9996 326.12 12.0713 327.048 12.0713 328.193C12.0713 329.338 12.9996 330.267 14.1447 330.267Z" fill="#931D22"/>
<path d="M40.0269 328.193C40.0269 329.334 39.094 330.267 37.9536 330.267C36.8133 330.267 35.8802 329.334 35.8802 328.193C35.8802 327.053 36.8133 326.12 37.9536 326.12C39.1112 326.12 40.0269 327.053 40.0269 328.193Z" fill="#931D22"/>
<path d="M61.7798 330.267C62.9249 330.267 63.8532 329.338 63.8532 328.193C63.8532 327.048 62.9249 326.12 61.7798 326.12C60.6347 326.12 59.7064 327.048 59.7064 328.193C59.7064 329.338 60.6347 330.267 61.7798 330.267Z" fill="#931D22"/>
<path d="M85.5887 330.267C86.7338 330.267 87.662 329.338 87.662 328.193C87.662 327.048 86.7338 326.12 85.5887 326.12C84.4437 326.12 83.5154 327.048 83.5154 328.193C83.5154 329.338 84.4437 330.267 85.5887 330.267Z" fill="#931D22"/>
<path d="M14.1447 353.557C15.2897 353.557 16.218 352.629 16.218 351.484C16.218 350.339 15.2897 349.411 14.1447 349.411C12.9996 349.411 12.0713 350.339 12.0713 351.484C12.0713 352.629 12.9996 353.557 14.1447 353.557Z" fill="#931D22"/>
<path d="M40.0269 351.484C40.0269 352.624 39.094 353.557 37.9536 353.557C36.8133 353.557 35.8802 352.624 35.8802 351.484C35.8802 350.344 36.8133 349.411 37.9536 349.411C39.1112 349.411 40.0269 350.344 40.0269 351.484Z" fill="#931D22"/>
<path d="M61.7798 353.557C62.9249 353.557 63.8532 352.629 63.8532 351.484C63.8532 350.339 62.9249 349.411 61.7798 349.411C60.6347 349.411 59.7064 350.339 59.7064 351.484C59.7064 352.629 60.6347 353.557 61.7798 353.557Z" fill="#931D22"/>
<path d="M85.5887 353.557C86.7338 353.557 87.662 352.629 87.662 351.484C87.662 350.339 86.7338 349.411 85.5887 349.411C84.4437 349.411 83.5154 350.339 83.5154 351.484C83.5154 352.629 84.4437 353.557 85.5887 353.557Z" fill="#931D22"/>
<path d="M14.1447 376.848C15.2897 376.848 16.218 375.92 16.218 374.774C16.218 373.629 15.2897 372.701 14.1447 372.701C12.9996 372.701 12.0713 373.629 12.0713 374.774C12.0713 375.92 12.9996 376.848 14.1447 376.848Z" fill="#931D22"/>
<path d="M40.0269 374.774C40.0269 375.915 39.094 376.848 37.9536 376.848C36.8133 376.848 35.8802 375.915 35.8802 374.774C35.8802 373.634 36.8133 372.701 37.9536 372.701C39.1112 372.718 40.0269 373.634 40.0269 374.774Z" fill="#931D22"/>
<path d="M61.7798 376.848C62.9249 376.848 63.8532 375.92 63.8532 374.774C63.8532 373.629 62.9249 372.701 61.7798 372.701C60.6347 372.701 59.7064 373.629 59.7064 374.774C59.7064 375.92 60.6347 376.848 61.7798 376.848Z" fill="#931D22"/>
<path d="M85.5887 376.848C86.7338 376.848 87.662 375.92 87.662 374.774C87.662 373.629 86.7338 372.701 85.5887 372.701C84.4437 372.701 83.5154 373.629 83.5154 374.774C83.5154 375.92 84.4437 376.848 85.5887 376.848Z" fill="#931D22"/>
<path d="M14.1447 400.156C15.2897 400.156 16.218 399.227 16.218 398.082C16.218 396.937 15.2897 396.009 14.1447 396.009C12.9996 396.009 12.0713 396.937 12.0713 398.082C12.0713 399.227 12.9996 400.156 14.1447 400.156Z" fill="#931D22"/>
<path d="M40.0269 398.082C40.0269 399.223 39.094 400.156 37.9536 400.156C36.8133 400.156 35.8802 399.223 35.8802 398.082C35.8802 396.942 36.8133 396.009 37.9536 396.009C39.1112 396.009 40.0269 396.925 40.0269 398.082Z" fill="#931D22"/>
<path d="M61.7798 400.156C62.9249 400.156 63.8532 399.227 63.8532 398.082C63.8532 396.937 62.9249 396.009 61.7798 396.009C60.6347 396.009 59.7064 396.937 59.7064 398.082C59.7064 399.227 60.6347 400.156 61.7798 400.156Z" fill="#931D22"/>
<path d="M85.5887 400.156C86.7338 400.156 87.662 399.227 87.662 398.082C87.662 396.937 86.7338 396.009 85.5887 396.009C84.4437 396.009 83.5154 396.937 83.5154 398.082C83.5154 399.227 84.4437 400.156 85.5887 400.156Z" fill="#931D22"/>
<path d="M14.1447 423.446C15.2897 423.446 16.218 422.518 16.218 421.373C16.218 420.228 15.2897 419.3 14.1447 419.3C12.9996 419.3 12.0713 420.228 12.0713 421.373C12.0713 422.518 12.9996 423.446 14.1447 423.446Z" fill="#931D22"/>
<path d="M40.0269 421.373C40.0269 422.513 39.094 423.446 37.9536 423.446C36.8133 423.446 35.8802 422.513 35.8802 421.373C35.8802 420.233 36.8133 419.3 37.9536 419.3C39.1112 419.3 40.0269 420.233 40.0269 421.373Z" fill="#931D22"/>
<path d="M61.7798 423.446C62.9249 423.446 63.8532 422.518 63.8532 421.373C63.8532 420.228 62.9249 419.3 61.7798 419.3C60.6347 419.3 59.7064 420.228 59.7064 421.373C59.7064 422.518 60.6347 423.446 61.7798 423.446Z" fill="#931D22"/>
<path d="M85.5887 423.446C86.7338 423.446 87.662 422.518 87.662 421.373C87.662 420.228 86.7338 419.3 85.5887 419.3C84.4437 419.3 83.5154 420.228 83.5154 421.373C83.5154 422.518 84.4437 423.446 85.5887 423.446Z" fill="#931D22"/>
<path d="M14.1447 446.737C15.2897 446.737 16.218 445.809 16.218 444.663C16.218 443.518 15.2897 442.59 14.1447 442.59C12.9996 442.59 12.0713 443.518 12.0713 444.663C12.0713 445.809 12.9996 446.737 14.1447 446.737Z" fill="#931D22"/>
<path d="M40.0269 444.663C40.0269 445.804 39.094 446.737 37.9536 446.737C36.8133 446.737 35.8802 445.804 35.8802 444.663C35.8802 443.523 36.8133 442.59 37.9536 442.59C39.1112 442.59 40.0269 443.523 40.0269 444.663Z" fill="#931D22"/>
<path d="M61.7798 446.737C62.9249 446.737 63.8532 445.809 63.8532 444.663C63.8532 443.518 62.9249 442.59 61.7798 442.59C60.6347 442.59 59.7064 443.518 59.7064 444.663C59.7064 445.809 60.6347 446.737 61.7798 446.737Z" fill="#931D22"/>
<path d="M85.5887 446.737C86.7338 446.737 87.662 445.809 87.662 444.663C87.662 443.518 86.7338 442.59 85.5887 442.59C84.4437 442.59 83.5154 443.518 83.5154 444.663C83.5154 445.809 84.4437 446.737 85.5887 446.737Z" fill="#931D22"/>
<path d="M14.1447 470.027C15.2897 470.027 16.218 469.099 16.218 467.954C16.218 466.809 15.2897 465.881 14.1447 465.881C12.9996 465.881 12.0713 466.809 12.0713 467.954C12.0713 469.099 12.9996 470.027 14.1447 470.027Z" fill="#931D22"/>
<path d="M40.0269 467.954C40.0269 469.094 39.094 470.027 37.9536 470.027C36.8133 470.027 35.8802 469.094 35.8802 467.954C35.8802 466.814 36.8133 465.881 37.9536 465.881C39.1112 465.881 40.0269 466.814 40.0269 467.954Z" fill="#931D22"/>
<path d="M61.7798 470.027C62.9249 470.027 63.8532 469.099 63.8532 467.954C63.8532 466.809 62.9249 465.881 61.7798 465.881C60.6347 465.881 59.7064 466.809 59.7064 467.954C59.7064 469.099 60.6347 470.027 61.7798 470.027Z" fill="#931D22"/>
<path d="M85.5887 470.027C86.7338 470.027 87.662 469.099 87.662 467.954C87.662 466.809 86.7338 465.881 85.5887 465.881C84.4437 465.881 83.5154 466.809 83.5154 467.954C83.5154 469.099 84.4437 470.027 85.5887 470.027Z" fill="#931D22"/>
<path d="M16.218 491.245C16.218 492.385 15.285 493.318 14.1447 493.318C13.0043 493.318 12.0713 492.385 12.0713 491.245C12.0713 490.104 13.0043 489.171 14.1447 489.171C15.3023 489.189 16.218 490.104 16.218 491.245Z" fill="#931D22"/>
<path d="M40.0269 491.245C40.0269 492.385 39.094 493.318 37.9536 493.318C36.8133 493.318 35.8802 492.385 35.8802 491.245C35.8802 490.104 36.8133 489.171 37.9536 489.171C39.1112 489.189 40.0269 490.104 40.0269 491.245Z" fill="#931D22"/>
<path d="M63.8532 491.245C63.8532 492.385 62.9201 493.318 61.7798 493.318C60.6394 493.318 59.7064 492.385 59.7064 491.245C59.7064 490.104 60.6394 489.171 61.7798 489.171C62.9201 489.189 63.8532 490.104 63.8532 491.245Z" fill="#931D22"/>
<path d="M87.662 491.245C87.662 492.385 86.7291 493.318 85.5887 493.318C84.4484 493.318 83.5154 492.385 83.5154 491.245C83.5154 490.104 84.4484 489.171 85.5887 489.171C86.7291 489.189 87.662 490.104 87.662 491.245Z" fill="#931D22"/>
<path d="M14.1447 516.626C15.2897 516.626 16.218 515.698 16.218 514.552C16.218 513.407 15.2897 512.479 14.1447 512.479C12.9996 512.479 12.0713 513.407 12.0713 514.552C12.0713 515.698 12.9996 516.626 14.1447 516.626Z" fill="#931D22"/>
<path d="M40.0269 514.552C40.0269 515.693 39.094 516.626 37.9536 516.626C36.8133 516.626 35.8802 515.693 35.8802 514.552C35.8802 513.412 36.8133 512.479 37.9536 512.479C39.1112 512.479 40.0269 513.395 40.0269 514.552Z" fill="#931D22"/>
<path d="M61.7798 516.626C62.9249 516.626 63.8532 515.698 63.8532 514.552C63.8532 513.407 62.9249 512.479 61.7798 512.479C60.6347 512.479 59.7064 513.407 59.7064 514.552C59.7064 515.698 60.6347 516.626 61.7798 516.626Z" fill="#931D22"/>
<path d="M85.5887 516.626C86.7338 516.626 87.662 515.698 87.662 514.552C87.662 513.407 86.7338 512.479 85.5887 512.479C84.4437 512.479 83.5154 513.407 83.5154 514.552C83.5154 515.698 84.4437 516.626 85.5887 516.626Z" fill="#931D22"/>
</svg>
