<svg width="31" height="31" viewBox="0 0 31 31" fill="none" xmlns="http://www.w3.org/2000/svg">
<path fill-rule="evenodd" clip-rule="evenodd" d="M15.5 31C24.0604 31 31 24.0604 31 15.5C31 6.93959 24.0604 0 15.5 0C6.93959 0 0 6.93959 0 15.5C0 24.0604 6.93959 31 15.5 31ZM8.16667 10.8333C8.16667 9.08443 9.58443 7.66667 11.3333 7.66667H19.6667C21.4156 7.66667 22.8333 9.08443 22.8333 10.8333V19.1667C22.8333 20.9156 21.4156 22.3333 19.6667 22.3333H11.3333C9.58443 22.3333 8.16667 20.9156 8.16667 19.1667V10.8333ZM11.3333 5.66667C8.47986 5.66667 6.16667 7.97986 6.16667 10.8333V19.1667C6.16667 22.0201 8.47986 24.3333 11.3333 24.3333H19.6667C22.5201 24.3333 24.8333 22.0201 24.8333 19.1667V10.8333C24.8333 7.97986 22.5201 5.66667 19.6667 5.66667H11.3333ZM15.8783 12.6559C15.3928 12.5839 14.897 12.6668 14.4614 12.8928C14.0258 13.1189 13.6725 13.4765 13.4518 13.9149C13.2312 14.3533 13.1544 14.8501 13.2324 15.3346C13.3103 15.8192 13.5391 16.2668 13.8861 16.6139C14.2332 16.9609 14.6808 17.1897 15.1654 17.2676C15.6499 17.3456 16.1467 17.2688 16.5851 17.0482C17.0235 16.8275 17.3811 16.4742 17.6072 16.0386C17.8332 15.603 17.9161 15.1072 17.8442 14.6217C17.7707 14.1265 17.54 13.668 17.186 13.314C16.832 12.96 16.3735 12.7293 15.8783 12.6559ZM13.5402 11.1176C14.3493 10.6978 15.2701 10.5438 16.1717 10.6775C17.0914 10.8139 17.9428 11.2424 18.6002 11.8998C19.2576 12.5572 19.6861 13.4087 19.8225 14.3283C19.9562 15.2299 19.8022 16.1507 19.3824 16.9598C18.9626 17.7688 18.2984 18.4248 17.4843 18.8346C16.6701 19.2444 15.7475 19.387 14.8476 19.2422C13.9477 19.0974 13.1164 18.6726 12.4719 18.0281C11.8274 17.3836 11.4026 16.5523 11.2578 15.6524C11.113 14.7525 11.2556 13.8299 11.6654 13.0157C12.0752 12.2016 12.7312 11.5374 13.5402 11.1176ZM20.0833 9.41667C19.531 9.41667 19.0833 9.86438 19.0833 10.4167C19.0833 10.969 19.531 11.4167 20.0833 11.4167H20.0917C20.644 11.4167 21.0917 10.969 21.0917 10.4167C21.0917 9.86438 20.644 9.41667 20.0917 9.41667H20.0833Z" fill="#D9D9D9"/>
</svg>
