<svg width="31" height="31" viewBox="0 0 31 31" fill="none" xmlns="http://www.w3.org/2000/svg">
<path fill-rule="evenodd" clip-rule="evenodd" d="M15.5 31C24.0604 31 31 24.0604 31 15.5C31 6.93959 24.0604 0 15.5 0C6.93959 0 0 6.93959 0 15.5C0 24.0604 6.93959 31 15.5 31ZM18 5.66667C16.6297 5.66667 15.3156 6.21101 14.3466 7.17995C13.3777 8.14889 12.8333 9.46305 12.8333 10.8333V12.3333H11.3333C10.7811 12.3333 10.3333 12.781 10.3333 13.3333V16.6667C10.3333 17.219 10.7811 17.6667 11.3333 17.6667H12.8333V23.3333C12.8333 23.8856 13.2811 24.3333 13.8333 24.3333H17.1667C17.7189 24.3333 18.1667 23.8856 18.1667 23.3333V17.6667H19.6667C20.1255 17.6667 20.5255 17.3544 20.6368 16.9092L21.4701 13.5759C21.5448 13.2771 21.4777 12.9606 21.2882 12.7179C21.0987 12.4752 20.8079 12.3333 20.5 12.3333H18.1667V11H20.5C21.0523 11 21.5 10.5523 21.5 10V6.66667C21.5 6.11438 21.0523 5.66667 20.5 5.66667H18ZM15.7608 8.59416C16.3547 8.0003 17.1601 7.66667 18 7.66667H19.5V9H18C17.5138 9 17.0475 9.19316 16.7036 9.53697C16.3598 9.88079 16.1667 10.3471 16.1667 10.8333V13.3333C16.1667 13.8856 16.6144 14.3333 17.1667 14.3333H19.2192L18.8859 15.6667H17.1667C16.6144 15.6667 16.1667 16.1144 16.1667 16.6667V22.3333H14.8333V16.6667C14.8333 16.1144 14.3856 15.6667 13.8333 15.6667H12.3333V14.3333H13.8333C14.3856 14.3333 14.8333 13.8856 14.8333 13.3333V10.8333C14.8333 9.99348 15.167 9.18803 15.7608 8.59416Z" fill="#D9D9D9"/>
</svg>
