<svg width="31" height="31" viewBox="0 0 31 31" fill="none" xmlns="http://www.w3.org/2000/svg">
<path fill-rule="evenodd" clip-rule="evenodd" d="M31 15.5C31 24.0604 24.0604 31 15.5 31C6.93958 31 0 24.0604 0 15.5C0 6.93959 6.93958 0 15.5 0C24.0604 0 31 6.93959 31 15.5ZM8.31532 9.5834L15.5 14.6127L22.6847 9.5834C22.5618 9.43151 22.3743 9.33333 22.1667 9.33333H8.83334C8.62568 9.33333 8.43819 9.43151 8.31532 9.5834ZM24.8333 9.98209C24.8236 8.52133 23.6296 7.33333 22.1667 7.33333H8.83334C7.37025 7.33333 6.17624 8.5215 6.16673 9.98242C6.16656 9.99227 6.16653 10.0021 6.16666 10.012V20C6.16666 21.469 7.36438 22.6667 8.83334 22.6667H22.1667C23.6356 22.6667 24.8333 21.469 24.8333 20V10.0122C24.8335 10.0022 24.8334 9.99214 24.8333 9.98209ZM22.8333 11.9207V20C22.8333 20.3644 22.5311 20.6667 22.1667 20.6667H8.83334C8.46895 20.6667 8.16666 20.3644 8.16666 20V11.9207L14.9265 16.6526C15.2709 16.8936 15.7291 16.8936 16.0735 16.6526L22.8333 11.9207Z" fill="#D9D9D9"/>
</svg>
