<?xml version="1.0" encoding="UTF-8"?><svg id="Layer_2" xmlns="http://www.w3.org/2000/svg" viewBox="0 0 992.89 225.74"><defs><style>.cls-1{fill:#fff;}.cls-2{fill:#cf2128;}</style></defs><g id="Layer_1-2"><g><path class="cls-2" d="M261.4,90.16V29.98h-49.62V195.75h49.62v-61.42h12.71v-44.17h-12.71Zm20.43-60.18V195.75h49.51V29.98h-49.51Z"/><path class="cls-2" d="M435.08,29.98l-23.05,32.82-23.16-32.82h-49.62l47.91,75.28v90.49h49.62V105.26l47.8-75.28h-49.5Z"/><path class="cls-2" d="M490.74,28.34v100.71c0,7.42-.81,12.2-2.44,14.36-1.63,2.16-4.41,3.24-8.34,3.24-.84,0-1.76-.06-2.79-.17-1.02-.12-2.25-.25-3.69-.4v48.03c2.27,1.13,4.58,1.96,6.93,2.49,2.35,.53,4.92,.8,7.72,.8,9.16,0,17.37-2.1,24.64-6.3,7.27-4.2,13.17-10.24,17.71-18.11,3.18-5.53,5.45-11.94,6.81-19.25,1.37-7.3,2.05-19.66,2.05-37.07V28.34h-48.6Z"/><path class="cls-2" d="M851.95,27.83c-4.12-.84-8.12-1.25-11.98-1.25-15.59,0-29.03,5.71-40.3,17.14-11.28,11.43-16.92,24.79-16.92,40.08,0,10.6,3.86,22.18,11.58,34.74,.38,.61,.72,1.14,1.02,1.59,.23,.38,.57,.95,1.02,1.71,3.94,6.28,5.91,11.58,5.91,15.89,0,3.86-1.16,6.89-3.47,9.09-2.3,2.19-5.5,3.29-9.59,3.29-1.06,0-2.31-.09-3.75-.28s-3.21-.48-5.33-.86v47.12c3.86,1.06,7.3,1.84,10.33,2.33,3.03,.49,5.94,.74,8.74,.74,16.2,0,29.82-5.45,40.88-16.35,11.05-10.9,16.57-24.6,16.57-41.1,0-5.91-.83-11.75-2.49-17.54-1.67-5.8-4.24-11.64-7.73-17.55-.37-.68-.94-1.7-1.7-3.06-3.86-6.43-5.79-11.39-5.79-14.88,0-3.7,1.17-6.73,3.52-9.08,2.35-2.34,5.37-3.52,9.08-3.52,1.97,0,4,.27,6.08,.8,2.08,.53,4.63,1.43,7.66,2.72V31.69c-4.77-1.74-9.21-3.03-13.34-3.86Z"/><path class="cls-2" d="M922.95,90.16V29.98h-49.62V195.75h49.62v-61.42h12.71v-44.17h-12.71Zm20.44-60.18V195.75h49.5V29.98h-49.5Z"/><g><path class="cls-2" d="M36.89,85.05v.03s.06-.07,.1-.1c-.04,.03-.07,.06-.1,.07Z"/><path class="cls-2" d="M64.54,96.1h0c.17,.1,.33,.2,.5,.29-.17-.1-.33-.19-.5-.29Zm-21.09,59.91c.19-.07,.38-.15,.55-.23h0c-.17,.07-.36,.15-.55,.23Zm-6.56-70.96h0s-.05,.05-.07,.07c.02-.02,.04-.03,.07-.04,.03-.04,.06-.07,.1-.1-.04,.03-.07,.06-.1,.07Z"/><path class="cls-2" d="M183.66,55.18l-27.75,27.16-3.52-3.7c-4.7-4.97-9.99-8.81-15.72-11.41-5.68-2.57-12.65-3.86-20.76-3.86-6.56,0-12.87,1.18-18.76,3.52-5.86,2.33-11.05,5.66-15.44,9.91-4.28,4.17-7.76,9.29-10.35,15.2-1.47-.85-2.95-1.68-4.4-2.5-1.5-.86-2.97-1.69-4.39-2.5-6.21-3.52-11.51-6.44-14.22-7.8-1.03-.51-2.02-.93-2.99-1.25-1.78-.62-3.48-.92-5.14-.93h-.09c-2.34,0-4.41,.6-6.14,1.62,.13-.31,.26-.63,.39-.94,4.67-10.67,11.07-20.03,19.03-27.83,7.97-7.82,17.48-14,28.24-18.36,10.76-4.36,22.35-6.58,34.47-6.58,13.5,0,25.78,2.38,36.49,7.07,10.71,4.7,20.04,11.29,27.73,19.59l3.31,3.59Z"/><path class="cls-2" d="M199.86,119.07c0,10.71-1.66,20.96-4.93,30.46-3.32,9.66-8.6,18.38-15.72,25.96-7.56,8.03-16.71,14.32-27.22,18.72-10.48,4.38-22.55,6.59-35.86,6.59-12.12,0-23.71-2.22-34.47-6.58-10.76-4.36-20.26-10.54-28.24-18.35-3.84-3.77-7.32-7.9-10.42-12.36,1.78-.46,3.45-1.16,4.84-1.85,1.57-.78,2.79-1.56,3.42-1.98,.21-.13,.53-.31,.96-.56,2.66-1.52,9.23-5.28,16.72-9.63,1.44-.84,2.9-1.68,4.38-2.54,1.45-.85,2.91-1.71,4.38-2.57,1.27,1.61,2.63,3.13,4.11,4.54,4.46,4.26,9.69,7.6,15.56,9.94,5.87,2.33,12.27,3.53,18.99,3.53,7.71,0,14.25-1.1,19.45-3.27,5.27-2.21,9.8-5.05,13.49-8.47,2.55-2.3,4.76-5.22,6.62-8.75,1.03-1.94,1.94-4.04,2.74-6.27h-48.21v-35.54h86.76l.95,3.81c.5,1.98,.91,4.29,1.23,7.06,.31,2.72,.48,5.44,.48,8.12Z"/></g><g><path class="cls-2" d="M96.22,125.02c-.21,.16-.46,.32-.72,.49-.13,.08-.26,.18-.41,.27-.7,.45-1.54,.99-2.48,1.58-.2,.11-.39,.24-.58,.36-.36,.23-.75,.46-1.14,.71-.19,.11-.38,.23-.58,.34-.24,.17-.51,.33-.78,.48-.27,.17-.54,.34-.82,.5-.55,.34-1.12,.68-1.71,1.03-.39,.23-.8,.48-1.22,.73-1.1,.66-2.26,1.36-3.46,2.07-1.31,.78-2.65,1.58-4.03,2.39-1.48,.86-2.98,1.74-4.48,2.62-.25,.15-.5,.29-.75,.44-1.05,.62-2.12,1.23-3.17,1.85-.15,.08-.29,.17-.44,.25-1.47,.86-2.92,1.71-4.34,2.53-2.16,1.26-4.22,2.45-6.14,3.56-.67,.38-1.32,.76-1.95,1.12-.4,.23-.8,.47-1.18,.69-.58,.33-1.14,.65-1.67,.96-.18,.09-.35,.2-.53,.3-.33,.2-.67,.38-.99,.57-.7,.4-1.34,.77-1.91,1.09-.22,.13-.41,.25-.61,.36-.25,.13-.47,.26-.68,.38l-.3,.18c-.29,.16-.54,.3-.75,.43-.07,.03-.13,.08-.2,.11-.17,.1-.32,.18-.43,.25-.07,.03-.11,.07-.15,.08-.03,.02-.06,.03-.06,.03,0,0-.43,.31-1.11,.71-.11,.06-.21,.13-.31,.19-.17,.09-.34,.19-.52,.29-.27,.15-.56,.3-.87,.45-.24,.12-.48,.24-.75,.36-.17,.08-.36,.16-.55,.24-.23,.1-.46,.2-.69,.28-.16,.06-.33,.12-.5,.18-.13,.04-.27,.09-.4,.12-.3,.1-.61,.18-.91,.25-.15,.03-.3,.07-.46,.09-.2,.04-.41,.07-.62,.09h-.05c-.22,.03-.44,.04-.66,.04-.08,0-.15,0-.23-.01-.12,0-.23-.01-.34-.03-.14-.01-.27-.03-.4-.05-.12-.02-.23-.05-.33-.07-.12-.04-.23-.07-.35-.11-.01-.01-.03-.01-.04-.02-.11-.04-.21-.08-.31-.13l-.16-.08s-.1-.06-.15-.09c-.07-.04-.14-.08-.21-.14-.07-.05-.14-.1-.2-.15-.09-.07-.17-.15-.25-.24-.12-.11-.22-.24-.31-.37-.12-.15-.24-.32-.33-.5-.07-.12-.14-.26-.2-.4-.25-.56-.43-1.24-.53-2.06v-3.51s.02-.02,.03-.03c1.43-.82,2.89-1.68,4.37-2.54,1.45-.85,2.91-1.7,4.36-2.55,6.41-3.75,12.62-7.44,17.02-10.17,1.8-1.11,3.28-2.07,4.36-2.8,.13-.08,.27-.17,.38-.25,1.61-1.1,2.85-2.25,3.79-3.39,2.34-2.86,2.88-5.7,2.83-7.84-.1-4.34-2.61-7.48-4.61-9.3-1.01-.92-1.89-1.51-2.27-1.74l-.1-.06-.08-.05c-.22-.13-1.05-.61-2.38-1.38-1.21-.71-2.84-1.66-4.75-2.76-4.8-2.79-11.44-6.63-18.19-10.51-1.51-.87-3.03-1.74-4.54-2.6-.07-.04-.14-.08-.22-.12v-2.26s.01-.04,.02-.11c.01-.08,.04-.19,.07-.33,.03-.09,.06-.19,.09-.3,.05-.16,.12-.36,.2-.56,.03-.06,.06-.13,.08-.2,.07-.14,.14-.28,.21-.43,.08-.14,.16-.29,.26-.44,.09-.16,.2-.31,.3-.45,.09-.11,.17-.23,.28-.33,.09-.11,.18-.2,.3-.3,.05-.04,.08-.09,.13-.12l.06-.06s.04-.03,.07-.04c.03-.04,.06-.07,.1-.1,.03-.02,.07-.04,.1-.08,.12-.08,.24-.16,.36-.23,.15-.08,.31-.17,.48-.24,.14-.06,.28-.12,.43-.17,.35-.12,.74-.21,1.16-.24,.2-.02,.41-.04,.61-.04,.35,0,.74,.03,1.13,.1,.2,.02,.41,.07,.62,.11,.2,.05,.43,.1,.65,.17,.81,.23,1.71,.58,2.71,1.08,.44,.22,.94,.47,1.51,.77,.19,.1,.38,.2,.59,.32,1.23,.65,2.7,1.44,4.34,2.35,.28,.15,.56,.3,.85,.47,.28,.15,.57,.31,.86,.47,.88,.5,1.81,1.01,2.76,1.55,1.26,.7,2.57,1.44,3.91,2.2,1.45,.83,2.95,1.67,4.48,2.53h0c.17,.1,.33,.2,.5,.29,.16,.09,.33,.19,.5,.29,.33,.19,.67,.38,1,.57,.84,.48,1.67,.95,2.51,1.43,.26,.15,.52,.3,.79,.45,.58,.33,1.14,.66,1.73,1,.88,.5,1.77,1.01,2.64,1.52,.73,.42,1.45,.82,2.16,1.24,.06,.04,.12,.07,.17,.09,.41,.25,.82,.48,1.22,.71,.25,.14,.48,.28,.72,.42,.47,.27,.92,.52,1.37,.79,.06,.03,.12,.07,.18,.1,.34,.2,.69,.4,1.04,.61,.5,.28,.99,.55,1.46,.84,.33,.19,.66,.38,.98,.56,.62,.37,1.25,.73,1.86,1.08,.1,.06,.2,.12,.31,.18,.5,.29,.98,.56,1.45,.84,.86,.5,1.66,.97,2.42,1.41,.52,.3,1,.58,1.46,.84,.4,.24,.79,.46,1.14,.68,.05,.03,.11,.06,.16,.08,.4,.24,.78,.46,1.13,.66,.07,.05,.13,.08,.2,.12,.28,.16,.53,.31,.77,.44,.58,.33,1.03,.6,1.34,.77,.15,.1,.27,.17,.35,.21,.07,.05,.12,.07,.12,.07,0,0,8.1,5.05,0,10.63Z"/><path class="cls-2" d="M44,155.77h0c-.17,.09-.36,.17-.55,.24,.19-.08,.37-.16,.55-.24Z"/><path class="cls-2" d="M36.99,84.98s-.07,.06-.1,.09c-.02,.01-.05,.02-.07,.05,.02-.02,.05-.03,.07-.06h0s.07-.06,.1-.08Z"/><path class="cls-1" d="M36.89,85.05h0s-.05,.05-.07,.07c.02-.02,.04-.03,.07-.04,.03-.04,.06-.07,.1-.1-.04,.03-.07,.06-.1,.07Zm6.56,70.96c.19-.07,.38-.15,.55-.23h0c-.17,.07-.36,.15-.55,.23Z"/></g><path class="cls-2" d="M63.15,123.6c-.48,.48-1.06,.95-1.75,1.43-.7,.48-1.62,1.08-2.74,1.79-4.06,2.57-10.64,6.49-17.57,10.55-1.47,.87-2.96,1.74-4.45,2.61-.62,.36-1.22,.71-1.82,1.06-.87,.51-1.73,1.01-2.59,1.51-1.5,.87-2.96,1.72-4.38,2.54-8.46,4.89-15.11,8.69-15.11,8.69,0,0-.56,.39-1.43,.89-.16,.09-.34,.2-.51,.29-.28,.15-.57,.3-.87,.45-.41,.21-.85,.42-1.3,.6-.23,.09-.46,.2-.7,.28-1.18,.44-2.44,.77-3.6,.77-2.12,0-3.92-1.07-4.34-4.45v-63.86s.17-1.2,.93-2.38c.09-.15,.2-.3,.3-.44,.17-.23,.36-.44,.58-.64,.14-.14,.3-.27,.46-.39,.12-.08,.23-.16,.36-.23,.15-.08,.3-.17,.48-.24,.62-.28,1.33-.44,2.21-.44,1.35,0,3.02,.41,5.11,1.45,3.11,1.54,9.84,5.3,17.43,9.62,.35,.19,.68,.38,1.03,.58,1.52,.87,3.08,1.75,4.63,2.65,.43,.24,.86,.49,1.3,.73,1.13,.65,2.25,1.3,3.38,1.95,7.54,4.33,14.73,8.51,19.06,11.01,2.59,1.51,4.14,2.41,4.14,2.41,0,0,.38,.24,.91,.67,1.65,1.38,4.67,4.74,.85,8.53Z"/><path class="cls-2" d="M660.22,0c-62.34,0-112.87,50.53-112.87,112.87s50.53,112.87,112.87,112.87,112.87-50.53,112.87-112.87S722.56,0,660.22,0Zm-12.77,23.57c0-1.72,1.39-3.12,3.12-3.12h19.29c1.73,0,3.13,1.4,3.13,3.12V115.99c0,1.72-1.4,3.11-3.13,3.11h-19.29c-1.73,0-3.12-1.39-3.12-3.11V23.57Zm12.77,167.35c-43.11,0-78.05-34.95-78.05-78.05,0-36.28,24.76-66.8,58.32-75.54v26.23c-19.57,7.83-33.37,26.95-33.37,49.31,0,29.33,23.77,53.1,53.1,53.1s53.1-23.77,53.1-53.1c0-22.36-13.8-41.48-33.37-49.31v-26.23c33.55,8.74,58.32,39.26,58.32,75.54,0,43.1-34.95,78.05-78.05,78.05Z"/></g></g></svg>