<svg width="396" height="408" viewBox="0 0 396 408" fill="none" xmlns="http://www.w3.org/2000/svg">
<path d="M408.28 816.6C183.158 816.6 0 633.442 0 408.28C0 183.119 183.158 0 408.28 0C633.402 0 816.6 183.158 816.6 408.28C816.6 633.402 633.442 816.6 408.28 816.6ZM408.28 7.88795C187.497 7.88795 7.88795 187.497 7.88795 408.28C7.88795 629.064 187.497 808.712 408.28 808.712C629.064 808.712 808.712 629.104 808.712 408.28C808.712 187.497 629.064 7.88795 408.28 7.88795Z" fill="#C5C5C5"/>
<path d="M408.28 749.829C219.955 749.829 66.7714 596.605 66.7714 408.32C66.7714 219.995 219.995 66.811 408.28 66.811C596.605 66.811 749.789 220.034 749.789 408.32C749.828 596.605 596.605 749.829 408.28 749.829ZM408.28 93.7878C234.864 93.7878 93.7876 234.864 93.7876 408.28C93.7876 581.697 234.864 722.773 408.28 722.773C581.697 722.773 722.773 581.697 722.773 408.28C722.773 234.864 581.697 93.7878 408.28 93.7878Z" fill="#E3484F"/>
<path d="M408.28 683.018C256.792 683.018 133.543 559.768 133.543 408.28C133.543 256.792 256.792 133.543 408.28 133.543C559.768 133.543 683.018 256.792 683.018 408.28C683.018 559.768 559.768 683.018 408.28 683.018ZM408.28 141.431C261.131 141.431 141.431 261.131 141.431 408.28C141.431 555.43 261.131 675.13 408.28 675.13C555.43 675.13 675.13 555.43 675.13 408.28C675.13 261.131 555.43 141.431 408.28 141.431Z" fill="#C5C5C5"/>
<path d="M408.28 616.246C293.629 616.246 200.315 522.971 200.315 408.28C200.315 293.59 293.59 200.315 408.28 200.315C522.971 200.315 616.246 293.59 616.246 408.28C616.246 522.971 522.971 616.246 408.28 616.246ZM408.28 208.242C297.967 208.242 208.203 298.007 208.203 408.32C208.203 518.633 297.967 608.398 408.28 608.398C518.593 608.398 608.358 518.633 608.358 408.32C608.358 298.007 518.633 208.242 408.28 208.242Z" fill="#C5C5C5"/>
<path d="M408.28 549.475C330.426 549.475 267.125 486.134 267.125 408.28C267.125 330.426 330.466 267.125 408.28 267.125C486.134 267.125 549.475 330.466 549.475 408.28C549.475 486.134 486.134 549.475 408.28 549.475ZM408.28 275.013C334.804 275.013 275.013 334.804 275.013 408.28C275.013 481.757 334.804 541.587 408.28 541.587C481.757 541.587 541.587 481.796 541.587 408.28C541.587 334.765 481.796 275.013 408.28 275.013Z" fill="#C5C5C5"/>
<path d="M408.28 482.703C367.263 482.703 333.897 449.337 333.897 408.32C333.897 367.302 367.263 333.936 408.28 333.936C449.298 333.936 482.664 367.302 482.664 408.32C482.703 449.298 449.298 482.703 408.28 482.703ZM408.28 341.785C371.601 341.785 341.785 371.601 341.785 408.28C341.785 444.959 371.601 474.776 408.28 474.776C444.959 474.776 474.776 444.959 474.776 408.28C474.815 371.641 444.959 341.785 408.28 341.785Z" fill="#C5C5C5"/>
</svg>
