<svg width="31" height="35" viewBox="0 0 31 35" fill="none" xmlns="http://www.w3.org/2000/svg">
<g clip-path="url(#clip0_129_1246)">
<path d="M15.6527 9.63867C11.3051 9.63867 7.79822 13.1455 7.79822 17.4932C7.79822 21.8408 11.3051 25.3477 15.6527 25.3477C20.0004 25.3477 23.5072 21.8408 23.5072 17.4932C23.5072 13.1455 20.0004 9.63867 15.6527 9.63867ZM15.6527 22.5996C12.8431 22.5996 10.5463 20.3096 10.5463 17.4932C10.5463 14.6768 12.8363 12.3867 15.6527 12.3867C18.4691 12.3867 20.7592 14.6768 20.7592 17.4932C20.7592 20.3096 18.4623 22.5996 15.6527 22.5996ZM25.6605 9.31738C25.6605 10.3359 24.8402 11.1494 23.8285 11.1494C22.8099 11.1494 21.9965 10.3291 21.9965 9.31738C21.9965 8.30566 22.8168 7.48535 23.8285 7.48535C24.8402 7.48535 25.6605 8.30566 25.6605 9.31738ZM30.8627 11.1768C30.7465 8.72266 30.1859 6.54883 28.3881 4.75781C26.597 2.9668 24.4232 2.40625 21.9691 2.2832C19.4398 2.13965 11.8588 2.13965 9.32947 2.2832C6.8822 2.39941 4.70837 2.95996 2.91052 4.75098C1.11267 6.54199 0.55896 8.71582 0.435913 11.1699C0.292358 13.6992 0.292358 21.2803 0.435913 23.8096C0.552124 26.2637 1.11267 28.4375 2.91052 30.2285C4.70837 32.0195 6.87537 32.5801 9.32947 32.7031C11.8588 32.8467 19.4398 32.8467 21.9691 32.7031C24.4232 32.5869 26.597 32.0264 28.3881 30.2285C30.1791 28.4375 30.7396 26.2637 30.8627 23.8096C31.0062 21.2803 31.0062 13.7061 30.8627 11.1768ZM27.5951 26.5234C27.0619 27.8633 26.0297 28.8955 24.683 29.4355C22.6664 30.2354 17.8812 30.0508 15.6527 30.0508C13.4242 30.0508 8.6322 30.2285 6.62244 29.4355C5.28259 28.9023 4.25037 27.8701 3.71033 26.5234C2.91052 24.5068 3.09509 19.7217 3.09509 17.4932C3.09509 15.2646 2.91736 10.4727 3.71033 8.46289C4.24353 7.12305 5.27576 6.09082 6.62244 5.55078C8.63904 4.75098 13.4242 4.93555 15.6527 4.93555C17.8812 4.93555 22.6732 4.75781 24.683 5.55078C26.0228 6.08398 27.0551 7.11621 27.5951 8.46289C28.3949 10.4795 28.2103 15.2646 28.2103 17.4932C28.2103 19.7217 28.3949 24.5137 27.5951 26.5234Z" fill="white"/>
</g>
<defs>
<clipPath id="clip0_129_1246">
<rect width="30.625" height="35" fill="white" transform="translate(0.333374)"/>
</clipPath>
</defs>
</svg>
