<svg width="19" height="26" viewBox="0 0 19 26" fill="none" xmlns="http://www.w3.org/2000/svg">
<path d="M16.7335 0.567383H5.93506C4.81455 0.567383 3.90625 1.47568 3.90625 2.59619V23.5386C3.90625 24.6591 4.81455 25.5674 5.93506 25.5674H16.7335C17.854 25.5674 18.7623 24.6591 18.7623 23.5386V2.59619C18.7623 1.47568 17.854 0.567383 16.7335 0.567383ZM16.8644 23.5386C16.8644 23.5747 16.8121 23.604 16.776 23.604H5.95806C5.92192 23.604 5.86963 23.5746 5.86963 23.5386V19.7428H16.8644V23.5386ZM16.8644 17.7794H5.86963V6.06475H16.8644V17.7794ZM16.8644 4.10142H5.86963V2.59619C5.86963 2.56011 5.92192 2.53076 5.95806 2.53076H16.776C16.8121 2.53076 16.8644 2.56016 16.8644 2.59619V4.10142Z" fill="#642225"/>
<path d="M12.3486 20.6592H10.3198C9.77769 20.6592 9.33813 21.0987 9.33813 21.6409C9.33813 22.183 9.77769 22.6226 10.3198 22.6226H12.3486C12.8908 22.6226 13.3303 22.183 13.3303 21.6409C13.3303 21.0987 12.8908 20.6592 12.3486 20.6592Z" fill="#642225"/>
</svg>
