<svg width="138" height="186" viewBox="0 0 138 186" fill="none" xmlns="http://www.w3.org/2000/svg">
<path d="M66.3871 0.699983C87.7871 0.699983 104.887 6.29998 117.687 17.5C130.687 28.7 137.187 44.5 137.187 64.9C137.187 83.7 130.987 98.4 118.587 109C106.387 119.4 90.1871 124.7 69.9871 124.9L68.4871 147.4H23.4871L21.9871 91.6H39.9871C55.3871 91.6 67.0871 89.7 75.0871 85.9C83.2871 82.1 87.3871 75.2 87.3871 65.2C87.3871 58.2 85.4871 52.7 81.6871 48.7C77.8871 44.7 72.5871 42.7 65.7871 42.7C58.5871 42.7 52.9871 44.8 48.9871 49C44.9871 53 42.9871 58.5 42.9871 65.5H-5.31289C-5.71289 53.3 -3.21289 42.3 2.18711 32.5C7.78711 22.7 15.9871 15 26.7871 9.4C37.7871 3.59999 50.9871 0.699983 66.3871 0.699983ZM46.5871 225.4C37.5871 225.4 30.1871 222.8 24.3871 217.6C18.7871 212.2 15.9871 205.6 15.9871 197.8C15.9871 189.8 18.7871 183.1 24.3871 177.7C30.1871 172.3 37.5871 169.6 46.5871 169.6C55.3871 169.6 62.5871 172.3 68.1871 177.7C73.9871 183.1 76.8871 189.8 76.8871 197.8C76.8871 205.6 73.9871 212.2 68.1871 217.6C62.5871 222.8 55.3871 225.4 46.5871 225.4Z" fill="#E28588"/>
</svg>
