<svg width="123" height="199" viewBox="0 0 123 199" fill="none" xmlns="http://www.w3.org/2000/svg">
<path d="M72.3871 0.699983C93.7871 0.699983 110.887 6.29998 123.687 17.5C136.687 28.7 143.187 44.5 143.187 64.9C143.187 83.7 136.987 98.4 124.587 109C112.387 119.4 96.1871 124.7 75.9871 124.9L74.4871 147.4H29.4871L27.9871 91.6H45.9871C61.3871 91.6 73.0871 89.7 81.0871 85.9C89.2871 82.1 93.3871 75.2 93.3871 65.2C93.3871 58.2 91.4871 52.7 87.6871 48.7C83.8871 44.7 78.5871 42.7 71.7871 42.7C64.5871 42.7 58.9871 44.8 54.9871 49C50.9871 53 48.9871 58.5 48.9871 65.5H0.68711C0.28711 53.3 2.78711 42.3 8.18711 32.5C13.7871 22.7 21.9871 15 32.7871 9.4C43.7871 3.59999 56.9871 0.699983 72.3871 0.699983ZM52.5871 225.4C43.5871 225.4 36.1871 222.8 30.3871 217.6C24.7871 212.2 21.9871 205.6 21.9871 197.8C21.9871 189.8 24.7871 183.1 30.3871 177.7C36.1871 172.3 43.5871 169.6 52.5871 169.6C61.3871 169.6 68.5871 172.3 74.1871 177.7C79.9871 183.1 82.8871 189.8 82.8871 197.8C82.8871 205.6 79.9871 212.2 74.1871 217.6C68.5871 222.8 61.3871 225.4 52.5871 225.4Z" fill="#997519"/>
</svg>
