<svg width="25" height="26" viewBox="0 0 25 26" fill="none" xmlns="http://www.w3.org/2000/svg">
<path d="M22.9167 17.8015V20.9265C22.9179 21.2166 22.8585 21.5038 22.7423 21.7696C22.626 22.0354 22.4556 22.274 22.2418 22.4701C22.028 22.6663 21.7757 22.8156 21.5009 22.9085C21.226 23.0015 20.9348 23.036 20.6459 23.0099C17.4405 22.6616 14.3615 21.5663 11.6563 19.812C9.13948 18.2126 7.00563 16.0788 5.40632 13.562C3.64588 10.8445 2.55033 7.75049 2.20841 4.5307C2.18238 4.24264 2.21661 3.95233 2.30893 3.67823C2.40125 3.40413 2.54963 3.15225 2.74462 2.93864C2.93962 2.72503 3.17695 2.55436 3.44152 2.43749C3.70609 2.32063 3.99209 2.26014 4.28132 2.25987H7.40632C7.91185 2.25489 8.40194 2.43391 8.78524 2.76355C9.16854 3.09319 9.4189 3.55096 9.48966 4.05153C9.62155 5.0516 9.86617 6.03354 10.2188 6.97862C10.359 7.35145 10.3893 7.75665 10.3062 8.1462C10.2231 8.53575 10.0301 8.89332 9.75007 9.17653L8.42716 10.4995C9.91003 13.1073 12.0693 15.2666 14.6772 16.7495L16.0001 15.4265C16.2833 15.1465 16.6409 14.9535 17.0304 14.8704C17.42 14.7873 17.8252 14.8176 18.198 14.9578C19.1431 15.3104 20.125 15.5551 21.1251 15.687C21.6311 15.7583 22.0932 16.0132 22.4235 16.4031C22.7539 16.793 22.9294 17.2907 22.9167 17.8015Z" stroke="#642225" stroke-width="2" stroke-linecap="round" stroke-linejoin="round"/>
</svg>
