<svg width="36" height="35" viewBox="0 0 36 35" fill="none" xmlns="http://www.w3.org/2000/svg">
<g clip-path="url(#clip0_129_1250)">
<path d="M31.5689 10.3712C31.5911 10.6821 31.5911 10.9931 31.5911 11.304C31.5911 20.7868 24.3735 31.7132 11.1819 31.7132C7.11775 31.7132 3.3424 30.5361 0.166626 28.4931C0.744058 28.5597 1.2992 28.5819 1.89885 28.5819C5.25222 28.5819 8.33919 27.4493 10.8043 25.5172C7.65075 25.4505 5.00797 23.3852 4.09743 20.5425C4.54163 20.6091 4.98576 20.6536 5.45217 20.6536C6.09619 20.6536 6.74027 20.5647 7.33985 20.4093C4.05306 19.743 1.58789 16.856 1.58789 13.3693V13.2805C2.5428 13.8135 3.6533 14.1466 4.83024 14.191C2.89813 12.9029 1.63232 10.7043 1.63232 8.21701C1.63232 6.88455 1.98758 5.66311 2.60945 4.59711C6.14055 8.94989 11.4483 11.7925 17.4 12.1034C17.289 11.5704 17.2224 11.0153 17.2224 10.4601C17.2224 6.507 20.4203 3.28687 24.3956 3.28687C26.4609 3.28687 28.3264 4.15298 29.6367 5.55209C31.2578 5.24119 32.8124 4.64154 34.1894 3.81986C33.6563 5.48551 32.5237 6.88462 31.0358 7.77288C32.4794 7.6175 33.8785 7.21767 35.1665 6.66252C34.1895 8.08378 32.968 9.34959 31.5689 10.3712Z" fill="white"/>
</g>
<defs>
<clipPath id="clip0_129_1250">
<rect width="35" height="35" fill="white" transform="translate(0.166626)"/>
</clipPath>
</defs>
</svg>
